<svg width="614" height="168" viewBox="0 0 614 168" fill="none" xmlns="http://www.w3.org/2000/svg">
<g clip-path="url(#clip0_2081_77947)">
<path d="M190.98 137.62C198.397 133.269 210.384 133.269 217.758 137.62C225.133 141.972 225.104 148.848 217.672 153.142C210.24 157.435 198.267 157.493 190.893 153.142C183.519 148.79 183.562 141.914 190.98 137.62Z" fill="#F7F7F7"/>
<path d="M209.098 136.735C209.098 136.735 212.409 138.737 213.031 139.027C214.394 139.772 215.658 140.689 216.79 141.754C216.95 141.973 217.054 142.227 217.092 142.496C217.13 142.764 217.1 143.038 217.007 143.292C216.656 143.831 216.113 144.215 215.489 144.365C213.886 144.364 212.3 144.028 210.833 143.379C210.243 143.098 209.716 142.698 209.286 142.204C209.098 142.132 207.84 141.827 207.84 141.827C207.702 141.893 207.551 141.927 207.399 141.927C207.246 141.927 207.096 141.893 206.958 141.827C206.365 141.667 204.586 141.16 204.442 140.681C204.252 139.723 204.252 138.737 204.442 137.78C204.76 136.953 209.098 136.735 209.098 136.735Z" fill="#5C6467"/>
<path d="M209.705 137.272C209.705 137.272 211.151 138.258 210.92 138.969C210.688 139.68 210.399 139.709 209.17 139.68C207.941 139.651 206.278 138.795 206.09 138.041C205.902 137.287 206.987 137.185 206.987 137.185L209.705 137.272Z" fill="#FEBFBF"/>
<path d="M211.989 103.357C211.02 111.147 211.035 112.308 210.934 114.164C210.832 116.021 209.806 137.113 209.835 137.374C209.425 137.851 208.913 138.23 208.337 138.481C207.762 138.733 207.136 138.85 206.509 138.824C204.89 138.694 204.369 138.491 204.282 137.809C204.195 137.127 202.995 119.691 203.675 117.791C203.036 112.95 202.66 108.079 202.547 103.198C202.417 98.2803 202.547 94.9584 202.547 94.9584L212.307 90.2295C212.693 94.6035 212.587 99.0073 211.989 103.357Z" fill="#7282B5"/>
<g style="mix-blend-mode:multiply">
<path d="M206.466 138.781C204.846 138.65 204.326 138.447 204.239 137.765C204.152 137.084 202.952 119.647 203.632 117.747C202.993 112.907 202.616 108.035 202.504 103.154L206.061 101.704C204.91 103.169 204.298 104.988 204.326 106.853C204.326 110.175 205.367 115.557 205.193 119.604C205.02 123.651 205.396 134.908 205.642 137.142C205.744 137.759 206.032 138.331 206.466 138.781Z" fill="#E8D0C8"/>
</g>
<path d="M200.508 142.305C200.624 142.428 200.731 142.559 200.827 142.697C201.347 143.379 202.403 144.829 203.068 145.598C204.133 146.96 204.986 148.477 205.598 150.095C205.714 150.806 205.526 150.864 205.352 151.096C204.97 151.417 204.521 151.648 204.038 151.773C203.556 151.899 203.051 151.915 202.562 151.821C201.048 151.582 199.68 150.78 198.73 149.573C197.833 148.47 196.272 146.077 195.939 145.656C195.355 145.111 194.8 144.534 194.276 143.93C194.115 143.086 194.226 142.211 194.595 141.435C194.942 140.942 200.61 142.218 200.61 142.218L200.508 142.305Z" fill="#5C6467"/>
<path d="M200.422 142.48C200.422 142.48 201.217 143.394 201.145 144.032C200.957 145.483 199.511 145.367 198.586 145.149C197.66 144.931 195.564 143.176 195.694 142.48C195.824 141.784 200.422 142.48 200.422 142.48Z" fill="#FEBFBF"/>
<path d="M207.189 99.8902C206.697 101.747 203.632 103.923 203.632 103.923C203.632 103.923 203.14 108.666 202.519 118.545C202.273 122.244 201.839 131.702 200.827 142.697C200.226 143.311 199.441 143.71 198.592 143.833C197.743 143.957 196.877 143.797 196.128 143.379C195.642 143.147 195.194 142.844 194.797 142.48C194.232 137.577 193.923 132.648 193.872 127.713C193.872 124.927 194.537 118.443 194.552 117.138C195.303 113.279 191.501 106.606 191.833 94.9437C191.842 94.4234 191.89 93.9045 191.978 93.3916C193.554 83.542 207.565 93.0434 207.565 93.0434C207.65 95.3324 207.524 97.6244 207.189 99.8902Z" fill="#7282B5"/>
<path d="M195.954 143.408C194.132 133.762 195.607 122.433 196.099 118.748C196.099 118.371 196.185 118.081 196.214 117.878C196.402 116.137 195.621 111.814 194.768 107.245C194.609 106.317 194.436 105.374 194.262 104.431C193.646 101.081 193.559 97.6541 194.002 94.2766H194.363C193.923 97.6161 194.016 101.005 194.638 104.315C194.812 105.272 194.971 106.215 195.144 107.216C196.012 112.003 196.778 116.152 196.59 117.95C196.59 118.153 196.59 118.443 196.489 118.821C195.997 122.534 194.522 133.834 196.33 143.481L195.954 143.408Z" fill="#A0ABCD"/>
<g style="mix-blend-mode:multiply">
<path d="M196.085 143.379C195.599 143.147 195.151 142.844 194.754 142.48C194.189 137.577 193.88 132.648 193.829 127.713C193.829 124.927 194.494 118.443 194.509 117.138C195.26 113.279 191.458 106.607 191.79 94.9437C191.799 94.4234 191.847 93.9045 191.935 93.3916L193.12 93.9138C192.958 97.9833 193.303 102.057 194.147 106.041C195.593 113.671 195.911 115.673 195.665 117.051C195.2 120.843 194.973 124.661 194.986 128.481C194.798 135.43 194.798 142.204 196.07 143.365L196.085 143.379Z" fill="#E8D0C8"/>
</g>
<path d="M211.888 76.144C211.392 76.177 210.895 76.0873 210.442 75.8829C210.014 75.6763 209.661 75.3418 209.43 74.9255C207.854 72.1113 207.087 54.6172 207.087 54.6172C207.912 54.6985 208.696 55.0149 209.347 55.529C209.997 56.0431 210.488 56.7335 210.76 57.5184C211.425 59.2736 212.365 64.4087 213.348 68.3978C213.663 70.0074 214.188 71.5682 214.91 73.0397C214.955 73.1052 215.003 73.1682 215.055 73.2283C216.153 74.4468 213.927 76.0279 211.888 76.144Z" fill="#FEBFBF"/>
<path d="M225.609 90.4181C225.306 91.3754 223.513 90.7082 222.717 90.5051C221.922 90.302 220.129 87.9956 220.129 87.9956C219.836 87.6064 219.651 87.1457 219.594 86.661C219.609 86.5406 219.609 86.4188 219.594 86.2984C219.479 85.7907 219.016 85.2249 217.382 83.8469C215.343 82.1352 211.063 78.0445 210.673 76.3328C210.673 76.1732 210.601 76.0282 210.572 75.8831C210.34 74.7081 210.413 74.331 211.685 74.7226C211.936 74.7872 212.183 74.8696 212.422 74.9692C213.165 74.8243 213.863 74.5063 214.461 74.0409C214.774 73.7684 214.979 73.3928 215.04 72.9819C216.511 74.7304 217.768 76.6491 218.785 78.6973C221.127 83.049 221.329 83.4842 221.951 83.9774C222.573 84.4706 223.093 84.8043 223.093 84.8043C223.866 85.2389 224.61 85.7235 225.32 86.2549C225.529 86.7732 225.698 87.3066 225.826 87.8505C225.895 88.7125 225.822 89.58 225.609 90.4181Z" fill="#FEBFBF"/>
<path d="M219.856 85.1232C219.692 85.4987 219.575 85.8935 219.509 86.2981C219.393 85.7904 218.931 85.2247 217.297 83.8466C215.258 82.1349 210.978 78.0443 210.588 76.3326C210.588 76.173 210.515 76.0279 210.486 75.8829C210.059 75.6763 209.705 75.3418 209.474 74.9255C207.898 72.1113 207.132 54.6172 207.132 54.6172C207.956 54.6985 208.74 55.0149 209.391 55.529C210.042 56.0431 210.532 56.7335 210.805 57.5184C211.47 59.2736 212.41 64.4087 213.393 68.3978C212.814 69.3117 211.6 70.7913 211.6 70.7913V74.7224C211.64 75.2155 211.737 75.7022 211.889 76.173C212.174 77.2268 212.666 78.213 213.335 79.0742C214.347 80.1766 219.119 85.1667 219.119 85.1667C219.119 85.1667 220.03 84.833 219.856 85.1232Z" fill="url(#paint0_linear_2081_77947)"/>
<path d="M206.899 53.0798C207.789 53.2005 208.626 53.571 209.314 54.1485C210.002 54.726 210.513 55.487 210.789 56.3437C212.018 59.4769 214.288 66.9475 214.288 66.9475C213.136 68.729 211.345 69.9967 209.285 70.4869C206.032 71.0962 206.899 53.0798 206.899 53.0798Z" fill="#9880FF"/>
<path d="M217.469 86.9509L228.704 89.1268L222.66 92.3036L212.654 89.8521L217.469 86.9509Z" fill="#2D2C37"/>
<path d="M208.202 94.1894C203.657 95.6921 198.803 96.0017 194.104 95.0888C193.947 95.0621 193.793 95.0233 193.642 94.9727C191.589 94.349 191.574 93.9573 191.502 93.0579C191.429 92.1586 191.603 88.416 191.097 82.6137C190.668 78.8628 189.884 75.1615 188.754 71.5601C188.379 70.3126 188.118 69.5293 188.118 69.5293C187.632 67.6192 187.261 65.6816 187.005 63.7269C187.005 62.3924 187.395 60.9708 189.897 58.7659C192.398 56.561 194.712 54.7188 195.869 53.9209C197.025 53.1231 205.455 53.0941 207.436 53.6453C209.417 54.1965 210.183 56.6335 210.487 58.1132C211.163 61.9486 211.579 65.8258 211.73 69.7179C211.644 72.6191 211.326 75.1866 211.311 78.552C211.542 82.2111 211.986 85.8535 212.641 89.4605C212.641 89.4605 213.523 92.2311 208.202 94.1894Z" fill="#6E4DFF"/>
<g style="mix-blend-mode:multiply">
<path d="M196.084 83.281C195.462 80.3798 194.175 66.8313 194.175 66.8313C191.399 67.2375 189.968 68.9202 188.739 71.6183C189.868 75.2196 190.653 78.9209 191.081 82.6718C191.587 88.4741 191.428 92.2167 191.486 93.116C191.544 94.0154 191.573 94.4071 193.626 95.0308C193.777 95.0814 193.932 95.1202 194.089 95.1469C194.089 93.6963 193.192 90.2729 193.207 87.5603C193.207 87.4007 193.207 87.2702 193.207 87.1251C196.2 87.6183 207.348 89.3445 209.112 88.3291C210.645 87.3862 201.145 84.6156 196.084 83.281Z" fill="#DEDEDE"/>
</g>
<path d="M189.245 60.5649C189.245 60.5649 193.352 60.4344 194.002 66.6719C194.653 72.9095 194.942 80.8007 194.942 80.8007C194.942 80.8007 192.614 86.2985 190.503 85.1525C189.114 81.4717 188.187 77.6321 187.741 73.7218C187.64 70.5885 186.252 60.2603 189.245 60.5649Z" fill="#FEBFBF"/>
<path d="M192.093 82.0769C192.905 81.5101 193.844 81.1515 194.826 81.0325C194.826 81.0325 205.613 84.9926 208.548 84.5864C211.483 84.1803 212.669 83.8756 212.886 83.542C213.103 83.2084 214.028 83.0778 214.028 83.0778C214.828 83.0927 215.624 83.1997 216.399 83.3969C217.198 83.7935 217.967 84.2493 218.698 84.7605C218.9 85.0333 219.056 85.337 219.161 85.6599C219.161 85.9065 218.713 86.1821 218.713 86.1821C218.735 86.5444 218.735 86.9077 218.713 87.27C218.713 87.4586 218.048 87.4151 218.048 87.4151L217.455 87.7342C217.307 87.837 217.128 87.8833 216.949 87.8648C217.071 88.0793 217.15 88.3159 217.18 88.561C217.18 88.8802 216.139 89.2283 216.139 89.2283L214.693 88.7641C213.992 88.8448 213.283 88.8448 212.582 88.7641C211.424 88.4771 210.244 88.2926 209.054 88.2129C207.782 88.2129 190.647 86.3707 190.43 85.1376C190.213 83.9046 190.835 83.1358 192.093 82.0769Z" fill="#FEBFBF"/>
<path d="M222.69 84.9492C222.881 85.1298 223.033 85.3468 223.139 85.5874C223.139 85.863 223.269 86.6319 223.399 87.038C223.529 87.4442 223.529 87.5457 223.529 87.5457C223.529 87.5457 224.035 87.9374 224.035 88.1695C224.035 88.4016 223.312 88.5611 223.066 88.4886C222.82 88.4161 222.285 88.271 222.112 87.8504C221.984 87.5354 221.882 87.2103 221.808 86.8785L221.244 86.6754C221.244 86.6754 220.001 86.8349 219.943 85.863C219.94 85.691 219.974 85.5203 220.041 85.362C220.108 85.2036 220.207 85.0611 220.333 84.9436C220.458 84.8261 220.606 84.7362 220.768 84.6797C220.93 84.6232 221.102 84.6013 221.273 84.6155C221.755 84.6816 222.23 84.7933 222.69 84.9492Z" fill="#FEC7C6"/>
<path d="M205.106 52.4558C204.937 53.4154 204.937 54.3974 205.106 55.357C205.106 55.444 205.106 55.531 205.178 55.6181C205.656 57.3443 206.118 58.2146 204.036 58.8239C202.256 58.9734 200.474 58.5681 198.932 57.6634C197.829 57.2765 196.847 56.6063 196.083 55.7196C195.949 55.4597 195.879 55.1711 195.879 54.8783C195.879 54.5854 195.949 54.2969 196.083 54.0369C197.104 52.8814 197.758 51.4472 197.963 49.9173C198.325 47.988 198.599 45.696 198.758 44.2744C198.845 43.4476 198.903 42.9254 198.903 42.9254C198.903 42.9254 202.359 40.3433 204.34 42.2581C206.321 44.1729 206.003 48.2201 206.003 48.2201C205.633 49.6141 205.343 51.0283 205.135 52.4558C205.135 52.4558 205.092 52.4558 205.106 52.4558Z" fill="#FFADB7"/>
<path d="M205.121 55.6328C204.623 55.5962 204.135 55.4786 203.675 55.2847C201.043 54.3128 200.407 53.8341 199.019 55.0381C198.708 55.4027 198.53 55.8615 198.511 56.3405C198.493 56.8195 198.636 57.2907 198.917 57.6781C197.819 57.2849 196.841 56.6097 196.083 55.7198C195.949 55.4599 195.879 55.1713 195.879 54.8785C195.879 54.5857 195.949 54.2971 196.083 54.0371C197.104 52.8816 197.758 51.4475 197.963 49.9175C198.325 47.9882 198.599 45.6962 198.758 44.2747C201.52 44.2747 204.34 45.9573 204.542 48.757C204.658 50 204.847 51.2351 205.106 52.456C204.937 53.4156 204.937 54.3976 205.106 55.3572C205.077 55.4587 205.092 55.5458 205.121 55.6328Z" fill="url(#paint1_linear_2081_77947)"/>
<path d="M200.105 44.434C200.105 44.434 199.686 50.6425 200.206 51.8465C200.727 53.0505 204.37 55.9372 206.915 55.415C207.711 55.1684 208.607 52.6153 208.969 50.9472C209.33 49.279 209.113 47.6978 209.59 47.1466C210.067 46.5954 210.241 46.2907 210.227 46.0732C210.212 45.8556 210.53 41.5473 209.894 40.2708C209.258 38.9943 204.819 35.919 202.071 36.9924C199.324 38.0659 200.105 44.434 200.105 44.434Z" fill="#FEBFBF"/>
<path d="M200.624 48.0462C201.023 47.7583 201.366 47.3993 201.636 46.9872C202.078 46.4798 202.671 46.1288 203.327 45.9863C203.781 45.4493 204.125 44.8284 204.34 44.1586C204.484 43.3753 204.701 41.6781 204.701 41.6781C204.701 41.6781 205.713 41.1123 206.292 41.3735C206.91 41.7542 207.576 42.0517 208.273 42.2583C208.93 42.362 209.603 42.3124 210.239 42.1133C210.239 42.1133 210.109 42.4759 210.239 42.6355C210.369 42.795 211.41 41.3444 210.239 39.3861C208.947 37.2858 206.929 35.7366 204.571 35.0344C203.372 34.7006 202.093 34.814 200.971 35.3535C200.667 35.5013 200.393 35.7028 200.161 35.9482C198.828 36.1035 197.573 36.6598 196.56 37.5439C195.404 38.8639 195.982 44.7969 196.344 45.9138C196.705 47.0308 197.963 48.3653 197.79 49.5548C198.773 49.7289 197.385 44.4632 199.423 45.3481C200.739 45.8848 200.624 48.0462 200.624 48.0462Z" fill="#754554"/>
<path d="M200.25 46.0586C200.25 46.0586 199.324 44.4485 198.052 45.1883C196.779 45.9281 198.052 48.9018 198.818 49.2354C199.585 49.5691 199.961 49.366 200.047 49.0034C199.998 48.0172 200.066 47.0287 200.25 46.0586Z" fill="url(#paint2_linear_2081_77947)"/>
<path d="M189.838 60.1731C189.838 60.1731 192.47 59.5928 193.598 63.756C194.355 67.3863 194.733 71.086 194.725 74.7951C194.725 74.7951 191.255 74.5194 190.142 74.5485L187.582 74.6645C187.147 71.0727 186.896 67.4608 186.831 63.8431C187.076 61.8993 187.554 60.1586 189.838 60.1731Z" fill="#9880FF"/>
<path d="M210.92 42.563C210.92 42.563 213.913 44.4632 215.547 45.8123C215.851 46.0589 215.764 46.378 215.374 46.2475C212.8 45.3771 211.036 48.5249 207.869 47.8721C206.1 47.0141 204.412 45.9995 202.823 44.8404C202.823 44.8404 206.828 39.5457 210.92 42.563Z" fill="#725E6D"/>
<path d="M210.92 42.5629C209.798 41.9902 208.505 41.8558 207.29 42.1858C205.684 42.5141 204.218 43.3353 203.097 44.5357C202.999 44.6313 202.907 44.7331 202.822 44.8403C200.383 44.6294 198.026 43.8496 195.94 42.5629C195.733 41.149 195.782 39.7092 196.084 38.3127C197.125 34.8167 201.275 33.9609 204.644 34.5121L205.425 34.6717C208.404 35.4115 210.544 37.6599 210.775 39.241C210.932 40.3409 210.98 41.4535 210.92 42.5629Z" fill="#6745FF"/>
<g style="mix-blend-mode:multiply">
<path d="M203.097 44.5357C202.999 44.6313 202.907 44.7331 202.822 44.8403C200.383 44.6294 198.026 43.8496 195.94 42.5629C195.733 41.149 195.782 39.7092 196.084 38.3127C197.125 34.8167 201.275 33.9609 204.644 34.5121L205.425 34.6717C204.977 34.6717 201.347 33.8158 200.596 36.6155C199.67 40.1984 200.899 43.3317 203.097 44.5357Z" fill="#FCF5E8"/>
</g>
<path d="M199.772 46.3055C199.772 46.3055 199.135 45.3046 198.326 45.8559C197.805 46.2475 198.326 47.8432 198.673 48.3799C199.02 48.9166 199.569 48.8151 199.627 48.641C199.517 47.8607 199.566 47.0661 199.772 46.3055Z" fill="url(#paint3_linear_2081_77947)"/>
</g>
<g clip-path="url(#clip1_2081_77947)">
<path d="M391.885 105.332L311.738 62.7036L237.592 116.704H226.779L215.965 122.944L226.779 129.184H237.592L254.706 139.049L249.329 142.159L260.142 148.399H270.926L288.177 158.341L282.867 161.413L293.671 167.653H304.494L402.698 111.572L391.885 105.332Z" fill="#BBBDBF"/>
<path d="M293.672 165.126L281.458 158.108L380.051 102.339L391.963 109.142L293.672 165.126Z" fill="url(#paint4_linear_2081_77947)"/>
<path d="M293.672 165.125L281.458 158.108V160.684L293.672 167.701V165.125Z" fill="#AF9B77"/>
<path d="M293.67 165.125V167.701L391.962 111.708V109.142L293.67 165.125Z" fill="url(#paint5_linear_2081_77947)"/>
<path d="M293.682 158.089L305.584 151.285V158.332L293.682 165.135V158.089Z" fill="#77654D"/>
<path d="M293.681 158.089V165.135L281.458 158.108V151.062L293.681 158.089Z" fill="#A5937F"/>
<path d="M380.05 108.88L391.952 102.086V109.133L380.05 115.936V108.88Z" fill="#77654D"/>
<path d="M380.051 108.88V115.936L367.828 108.909V101.863L380.051 108.88Z" fill="#A5937F"/>
<path d="M338.636 132.527L350.538 125.733V132.78L338.636 139.583V132.527Z" fill="#77654D"/>
<path d="M338.633 132.527V139.583L326.41 132.556V125.51L338.633 132.527Z" fill="#A5937F"/>
<path d="M260.142 145.823L247.929 138.806L346.522 83.0364L358.434 89.8399L260.142 145.823Z" fill="url(#paint6_linear_2081_77947)"/>
<path d="M260.142 145.823L247.929 138.806V141.381L260.142 148.399V145.823Z" fill="#AF9B77"/>
<path d="M260.142 145.823V148.399L358.433 92.4155V89.8398L260.142 145.823Z" fill="url(#paint7_linear_2081_77947)"/>
<path d="M260.15 138.786L272.053 131.983V139.029L260.15 145.833V138.786Z" fill="#77654D"/>
<path d="M260.152 138.786V145.833L247.929 138.806V131.759L260.152 138.786Z" fill="#A5937F"/>
<path d="M346.522 89.5775L358.425 82.7837V89.8302L346.522 96.6337V89.5775Z" fill="#83765F"/>
<path d="M346.522 89.5774V96.6336L334.299 89.6065V82.5601L346.522 89.5774Z" fill="#A5937F"/>
<path d="M305.107 113.234L317.009 106.431V113.477L305.107 120.281V113.234Z" fill="#83765F"/>
<path d="M305.107 113.234V120.281L292.883 113.254V106.207L305.107 113.234Z" fill="#A5937F"/>
<path d="M226.798 126.608L214.585 119.6L313.178 63.8213L325.08 70.6248L226.798 126.608Z" fill="url(#paint8_linear_2081_77947)"/>
<path d="M226.798 126.608L214.585 119.6V122.166L226.798 129.184V126.608Z" fill="#AF9B77"/>
<path d="M226.797 126.608V129.184L325.079 73.2004V70.6248L226.797 126.608Z" fill="url(#paint9_linear_2081_77947)"/>
<path d="M226.779 119.552L238.681 112.748V119.804L226.779 126.598V119.552Z" fill="#77654D"/>
<path d="M226.778 119.552V126.598L214.555 119.581V112.534L226.778 119.552Z" fill="#A5937F"/>
<path d="M313.167 70.3626L325.08 63.5688V70.6153L313.167 77.4188V70.3626Z" fill="#83765F"/>
<path d="M313.167 70.3623V77.4185L300.944 70.3915V63.345L313.167 70.3623Z" fill="#A5937F"/>
<path d="M271.754 94.0193L283.666 87.2158V94.2623L271.754 101.066V94.0193Z" fill="#83765F"/>
<path d="M271.753 94.0192V101.066L259.53 94.0387V86.9922L271.753 94.0192Z" fill="#A5937F"/>
<path d="M293.681 155.542L305.583 148.739L226.156 103.253L214.555 110.017L293.681 155.542Z" fill="url(#paint10_linear_2081_77947)"/>
<path d="M293.682 155.542L305.584 148.739V151.314L293.682 158.108V155.542Z" fill="#826D5A"/>
<path d="M293.681 155.542V158.108L214.555 112.554V109.988L293.681 155.542Z" fill="#B29970"/>
<path d="M380.05 106.324L391.962 99.5202L312.526 54.0339L300.624 60.8374L380.05 106.324Z" fill="url(#paint11_linear_2081_77947)"/>
<path d="M380.05 106.324L391.962 99.5203V102.096L380.05 108.899V106.324Z" fill="#826D5A"/>
<path d="M380.05 106.324V108.9L300.624 63.4035V60.8376L380.05 106.324Z" fill="#AF9B77"/>
<path d="M338.646 129.971L350.548 123.177L271.112 77.6812L259.209 84.4847L338.646 129.971Z" fill="url(#paint12_linear_2081_77947)"/>
<path d="M338.645 129.971L350.547 123.177V125.743L338.645 132.546V129.971Z" fill="#826D5A"/>
<path d="M338.646 129.971V132.547L259.209 87.0505V84.4846L338.646 129.971Z" fill="#AF9B77"/>
<path d="M293.671 152.977L281.769 146.173L380.051 90.1899L391.963 96.9837L293.671 152.977Z" fill="url(#paint13_linear_2081_77947)"/>
<path d="M293.671 152.976L281.769 146.173V148.748L293.671 155.542V152.976Z" fill="#AF9B77"/>
<path d="M293.67 152.976V155.542L391.962 99.559V96.9834L293.67 152.976Z" fill="url(#paint14_linear_2081_77947)"/>
<path d="M276.896 143.296L264.984 136.492L363.276 80.5093L375.178 87.3128L276.896 143.296Z" fill="url(#paint15_linear_2081_77947)"/>
<path d="M276.896 143.296L264.984 136.492V139.068L276.896 145.872V143.296Z" fill="#AF9B77"/>
<path d="M276.896 143.296V145.871L375.178 89.8786V87.3127L276.896 143.296Z" fill="url(#paint16_linear_2081_77947)"/>
<path d="M260.151 133.703L248.249 126.899L346.531 70.9163L358.443 77.71L260.151 133.703Z" fill="url(#paint17_linear_2081_77947)"/>
<path d="M260.151 133.703L248.249 126.899V129.475L260.151 136.269V133.703Z" fill="#AF9B77"/>
<path d="M260.15 133.703V136.269L358.442 80.2858V77.7102L260.15 133.703Z" fill="url(#paint18_linear_2081_77947)"/>
<path d="M243.378 124.022L231.466 117.219L329.748 61.2358L341.66 68.0393L243.378 124.022Z" fill="url(#paint19_linear_2081_77947)"/>
<path d="M243.378 124.022L231.466 117.219V119.795L243.378 126.598V124.022Z" fill="#AF9B77"/>
<path d="M243.377 124.023V126.598L341.659 70.6054V68.0396L243.377 124.023Z" fill="url(#paint20_linear_2081_77947)"/>
<path d="M226.458 114.245L214.555 107.441L312.837 51.4583L324.749 58.2618L226.458 114.245Z" fill="url(#paint21_linear_2081_77947)"/>
<path d="M226.458 114.245L214.555 107.441V110.017L226.458 116.821V114.245Z" fill="#AF9B77"/>
<path d="M226.457 114.245V116.821L324.748 60.8279V58.262L226.457 114.245Z" fill="url(#paint22_linear_2081_77947)"/>
<g style="mix-blend-mode:multiply">
<path d="M372.553 78.6239L338.518 58.9812H310.931L276.896 78.6239L310.941 98.2666H338.518L372.553 78.6239Z" fill="#BBBDBF"/>
</g>
<path d="M276.896 78.6241L310.931 98.2668V58.9814L276.896 39.3484V78.6241Z" fill="url(#paint23_linear_2081_77947)"/>
<path d="M276.896 39.348L310.941 58.981L344.975 39.348L310.931 19.7053L276.896 39.348Z" fill="url(#paint24_linear_2081_77947)"/>
<path d="M344.976 78.6241L310.932 98.2668V58.9814L344.976 39.3484V78.6241Z" fill="url(#paint25_linear_2081_77947)"/>
<g opacity="0.66">
<path d="M289.471 48.6592L278.463 42.3125V47.6776L289.471 54.0242V48.6592Z" fill="white"/>
<path d="M279.814 44.4021L279.445 44.1882V46.9291L279.814 47.1429V44.4021Z" fill="#404041"/>
<path d="M280.846 44.9951L280.214 44.6355V47.3666L280.846 47.736V44.9951Z" fill="#404041"/>
<path d="M281.654 45.4711L281.021 45.1018V47.8426L281.654 48.2023V45.4711Z" fill="#404041"/>
<path d="M282.528 45.9668L282.159 45.7627V48.4938L282.528 48.7076V45.9668Z" fill="#404041"/>
<path d="M285.396 47.6289L285.027 47.415V50.1462L285.396 50.36V47.6289Z" fill="#404041"/>
<path d="M286.544 48.29L286.185 48.0762V50.817L286.544 51.0211V48.29Z" fill="#404041"/>
<path d="M283.558 46.5695L282.926 46.2002V48.941L283.558 49.3006V46.5695Z" fill="#404041"/>
<path d="M284.375 47.0361L283.743 46.6667V49.4076L284.375 49.7769V47.0361Z" fill="#404041"/>
<path d="M287.712 48.9607L287.08 48.6011V51.3322L287.712 51.7015V48.9607Z" fill="#404041"/>
<path d="M288.488 49.4075L288.05 49.1548V51.8956L288.488 52.1483V49.4075Z" fill="#404041"/>
</g>
<path d="M342.922 73.0352L329.153 83.707L326.79 66.4552L340.559 55.7834L342.922 73.0352Z" fill="#BBBDBF"/>
<path d="M329.483 68.4477L328.55 69.1767L328.239 66.8635L329.172 66.1345L329.483 68.4477Z" fill="#404041"/>
<path d="M331.887 66.5816L330.954 67.3105L330.633 64.9973L331.576 64.2781L331.887 66.5816Z" fill="#404041"/>
<path d="M334.365 64.6668L332.459 66.1442L332.226 64.4724L334.132 62.9951L334.365 64.6668Z" fill="#404041"/>
<path d="M329.514 71.5577L328.92 72.0145L328.697 70.3428L329.28 69.886L329.514 71.5577Z" fill="#404041"/>
<path d="M330.468 70.8192L329.875 71.276L329.651 69.6043L330.244 69.1475L330.468 70.8192Z" fill="#404041"/>
<path d="M331.342 70.139L330.749 70.5958L330.516 68.9241L331.109 68.4673L331.342 70.139Z" fill="#404041"/>
<path d="M332.869 68.9532L332.275 69.41L332.052 67.7383L332.635 67.2815L332.869 68.9532Z" fill="#404041"/>
<path d="M333.821 68.2144L333.228 68.6712L333.004 66.9995L333.587 66.5427L333.821 68.2144Z" fill="#404041"/>
<path d="M334.698 67.534L334.104 67.9908L333.871 66.3191L334.464 65.8623L334.698 67.534Z" fill="#404041"/>
<path d="M335.455 66.951L334.862 67.4078L334.638 65.7361L335.222 65.2793L335.455 66.951Z" fill="#404041"/>
<path d="M329.834 73.8905L329.241 74.3473L329.017 72.6853L329.601 72.2188L329.834 73.8905Z" fill="#404041"/>
<path d="M330.788 73.1517L330.195 73.6085L329.971 71.9368L330.555 71.48L330.788 73.1517Z" fill="#404041"/>
<path d="M332.246 72.0245L331.663 72.4813L331.429 70.8096L332.022 70.3528L332.246 72.0245Z" fill="#404041"/>
<path d="M333.189 71.2955L332.596 71.7523L332.372 70.0806L332.956 69.6238L333.189 71.2955Z" fill="#404041"/>
<path d="M334.143 70.5567L333.55 71.0135L333.326 69.3418L333.91 68.885L334.143 70.5567Z" fill="#404041"/>
<path d="M335.018 69.8763L334.425 70.3331L334.191 68.6614L334.785 68.2046L335.018 69.8763Z" fill="#404041"/>
<path d="M336.729 68.5548L336.136 69.0116L335.913 67.3399L336.496 66.8831L336.729 68.5548Z" fill="#404041"/>
<path d="M337.604 67.8743L337.011 68.3312L336.778 66.6594L337.371 66.2026L337.604 67.8743Z" fill="#404041"/>
<path d="M338.519 67.1646L337.926 67.6214L337.693 65.9497L338.286 65.4929L338.519 67.1646Z" fill="#404041"/>
<path d="M339.472 66.4261L338.878 66.8829L338.645 65.2112L339.238 64.7544L339.472 66.4261Z" fill="#404041"/>
<path d="M340.336 65.7459L339.753 66.2027L339.52 64.531L340.113 64.0742L340.336 65.7459Z" fill="#404041"/>
<path d="M330.147 76.2037L329.563 76.6605L329.33 74.9888L329.923 74.532L330.147 76.2037Z" fill="#404041"/>
<path d="M331.109 75.4649L330.516 75.9217L330.282 74.25L330.875 73.7932L331.109 75.4649Z" fill="#404041"/>
<path d="M331.974 74.7845L331.39 75.2413L331.157 73.5696L331.75 73.1128L331.974 74.7845Z" fill="#404041"/>
<path d="M333.5 73.6087L332.917 74.0655L332.684 72.3938L333.277 71.9272L333.5 73.6087Z" fill="#404041"/>
<path d="M334.464 72.8604L333.871 73.327L333.638 71.6553L334.231 71.1887L334.464 72.8604Z" fill="#404041"/>
<path d="M335.329 72.1895L334.746 72.6464L334.512 70.9746L335.105 70.5178L335.329 72.1895Z" fill="#404041"/>
<path d="M336.088 71.5968L335.505 72.0536L335.271 70.3819L335.865 69.925L336.088 71.5968Z" fill="#404041"/>
<path d="M337.05 70.8582L336.457 71.315L336.224 69.6433L336.817 69.1865L337.05 70.8582Z" fill="#404041"/>
<path d="M337.915 70.1778L337.332 70.6346L337.098 68.9726L337.691 68.5061L337.915 70.1778Z" fill="#404041"/>
<path d="M339.783 68.7393L339.199 69.1961L338.966 67.5244L339.559 67.0676L339.783 68.7393Z" fill="#404041"/>
<path d="M340.657 68.0589L340.064 68.5157L339.84 66.844L340.424 66.3872L340.657 68.0589Z" fill="#404041"/>
<path d="M330.807 81.034L330.223 81.4908L329.99 79.8191L330.583 79.3623L330.807 81.034Z" fill="#404041"/>
<path d="M331.761 80.2955L331.177 80.7523L330.944 79.0806L331.537 78.6238L331.761 80.2955Z" fill="#404041"/>
<path d="M332.635 79.6248L332.052 80.0817L331.818 78.4099L332.412 77.9531L332.635 79.6248Z" fill="#404041"/>
<path d="M334.162 78.4393L333.578 78.8961L333.345 77.2244L333.938 76.7676L334.162 78.4393Z" fill="#404041"/>
<path d="M335.116 77.7005L334.532 78.1573L334.299 76.4856L334.892 76.0288L335.116 77.7005Z" fill="#404041"/>
<path d="M335.99 77.0201L335.407 77.4769L335.173 75.8052L335.767 75.3484L335.99 77.0201Z" fill="#404041"/>
<path d="M336.748 76.4273L336.165 76.8841L335.931 75.2124L336.524 74.7556L336.748 76.4273Z" fill="#404041"/>
<path d="M337.702 75.6886L337.119 76.1454L336.885 74.4737L337.478 74.0168L337.702 75.6886Z" fill="#404041"/>
<path d="M330.468 78.546L329.884 79.0028L329.651 77.3311L330.244 76.8743L330.468 78.546Z" fill="#404041"/>
<path d="M331.422 77.8075L330.838 78.2643L330.605 76.5926L331.198 76.1357L331.422 77.8075Z" fill="#404041"/>
<path d="M332.889 76.6705L332.296 77.1273L332.072 75.4556L332.656 74.9988L332.889 76.6705Z" fill="#404041"/>
<path d="M333.821 75.9415L333.237 76.3983L333.004 74.7266L333.597 74.2698L333.821 75.9415Z" fill="#404041"/>
<path d="M334.775 75.2027L334.191 75.6595L333.958 73.9878L334.551 73.531L334.775 75.2027Z" fill="#404041"/>
<path d="M335.649 74.5223L335.056 74.9889L334.833 73.3172L335.426 72.8604L335.649 74.5223Z" fill="#404041"/>
<path d="M337.361 73.2003L336.778 73.6571L336.544 71.9854L337.138 71.5286L337.361 73.2003Z" fill="#404041"/>
<path d="M338.236 72.5201L337.643 72.9769L337.419 71.3052L338.012 70.8484L338.236 72.5201Z" fill="#404041"/>
<path d="M339.151 71.8106L338.567 72.2772L338.334 70.6054L338.927 70.1389L339.151 71.8106Z" fill="#404041"/>
<path d="M340.979 70.4012L340.386 70.858L340.163 69.1863L340.756 68.7295L340.979 70.4012Z" fill="#404041"/>
<path d="M335.485 63.8018L334.892 64.2587L334.658 62.5869L335.251 62.1301L335.485 63.8018Z" fill="#404041"/>
<path d="M339.356 60.7987L335.816 63.5395L335.592 61.8678L339.132 59.127L339.356 60.7987Z" fill="#404041"/>
<g style="mix-blend-mode:multiply">
<path d="M290.803 47.3666L297.036 50.9627L310.932 42.9443L304.708 39.3481L290.803 47.3666Z" fill="#BBBDBF"/>
</g>
<g style="mix-blend-mode:multiply">
<path d="M331.07 31.32L324.837 27.7239L310.932 35.752L317.165 39.3482L331.07 31.32Z" fill="#BBBDBF"/>
</g>
<g style="mix-blend-mode:multiply">
<path d="M317.165 39.3482L310.932 35.752L297.036 27.7239L290.803 31.32L304.708 39.3482L310.932 42.9443L324.837 50.9627L331.07 47.3666L317.165 39.3482Z" fill="#C6C6C6"/>
</g>
<g style="mix-blend-mode:multiply">
<path d="M327.822 49.2522L293.778 29.6095L294.05 29.4346L328.094 49.0773L327.822 49.2522Z" fill="#D0D2D3"/>
</g>
<g style="mix-blend-mode:multiply">
<path d="M331.071 86.6518V47.3665L324.837 50.9626V90.248L331.071 86.6518Z" fill="#BBBDBF"/>
</g>
<g style="mix-blend-mode:multiply">
<path d="M284.686 72.9673C284.259 72.4483 283.765 71.9876 283.218 71.5969L283.052 71.4803C283.047 71.3929 283.047 71.3053 283.052 71.2179C283.052 71.2179 283.052 71.1595 283.004 71.1304L282.634 70.9263H282.576V71.1693C282.267 71.0169 281.94 70.9026 281.603 70.8291C281.282 70.7686 280.952 70.7686 280.631 70.8291C280.448 70.8652 280.271 70.9273 280.106 71.0137C279.747 71.1955 279.457 71.4889 279.279 71.8496L279.163 72.0634V72.1217C279.163 72.1217 279.163 72.1217 279.221 72.1217C279.301 72.0762 279.386 72.0403 279.474 72.0148C279.6 72.0063 279.727 72.0244 279.846 72.0679C279.965 72.1114 280.073 72.1795 280.164 72.2675C280.366 72.4199 280.535 72.6117 280.66 72.8313C280.66 72.8313 280.718 72.8896 280.748 72.8313C280.87 72.7867 281.003 72.7757 281.131 72.7997C281.259 72.8236 281.379 72.8815 281.477 72.9673C281.724 73.1323 281.931 73.3517 282.08 73.6088C282.08 73.6671 282.148 73.6671 282.177 73.6088C282.318 73.554 282.474 73.554 282.615 73.6088V77.2827C282.615 77.4188 282.615 77.5548 282.615 77.6812C282.615 77.8075 282.44 77.9631 282.226 77.8561C282.109 77.7937 282.008 77.7036 281.934 77.5937C281.848 77.4588 281.795 77.3057 281.778 77.1466C281.778 77.0689 281.778 76.9911 281.778 76.9134C281.778 76.8972 281.774 76.8813 281.765 76.8676C281.757 76.8539 281.744 76.8428 281.73 76.8356L281.399 76.7093C281.394 76.8963 281.417 77.083 281.467 77.2633C281.538 77.5424 281.683 77.7974 281.885 78.0019L282.138 78.2352L282.381 78.3713C282.455 78.404 282.534 78.4208 282.615 78.4208C282.695 78.4208 282.775 78.404 282.848 78.3713C282.9 78.3469 282.946 78.3118 282.983 78.2682C283.019 78.2246 283.047 78.1735 283.062 78.1186C283.107 77.9507 283.127 77.7771 283.12 77.6034C283.12 76.3691 283.12 75.1445 283.12 73.9101V73.8226C283.276 73.9609 283.41 74.1214 283.519 74.2989C283.519 74.3572 283.577 74.3863 283.616 74.3669C283.706 74.3201 283.806 74.2956 283.908 74.2956C284.01 74.2956 284.11 74.3201 284.2 74.3669C284.512 74.5315 284.772 74.7808 284.948 75.0861C284.948 75.0861 284.997 75.1542 285.026 75.1444L285.201 75.0958C285.351 75.0932 285.499 75.1221 285.636 75.1807C285.774 75.2393 285.897 75.3264 285.999 75.436C286.194 75.6276 286.355 75.8511 286.475 76.097C286.486 76.1177 286.503 76.1346 286.524 76.1455C286.524 76.1455 286.524 76.1455 286.524 76.0872C286.386 75.6063 286.207 75.1381 285.989 74.6876C285.617 74.0695 285.18 73.4929 284.686 72.9673Z" fill="#AF9B7B"/>
</g>
<g style="mix-blend-mode:multiply">
<path d="M285.979 71.7912L279.6 68.1173C278.997 67.7674 278.501 68.0492 278.501 68.749V76.1357C278.523 76.5155 278.634 76.8849 278.825 77.2141C279.015 77.5433 279.281 77.8231 279.6 78.031L285.979 81.7146C286.582 82.0645 287.078 81.7826 287.078 81.0828V73.7253C287.061 73.339 286.953 72.9621 286.762 72.6258C286.571 72.2895 286.302 72.0034 285.979 71.7912ZM286.679 80.8204C286.679 81.2675 286.358 81.4424 285.979 81.2286L279.6 77.545C279.399 77.4113 279.232 77.2329 279.113 77.0237C278.993 76.8146 278.923 76.5804 278.909 76.3398V68.9823C278.909 68.5352 279.221 68.3603 279.6 68.5741L285.979 72.248C286.181 72.3806 286.35 72.5586 286.472 72.7678C286.593 72.977 286.664 73.2117 286.679 73.4532V80.8204Z" fill="#AF9B7B"/>
</g>
<g style="mix-blend-mode:multiply">
<path d="M290.055 81.7534C289.743 81.5687 289.452 80.9467 289.578 80.694C289.704 80.4413 289.879 80.2274 290.035 79.9942L290.356 80.3829C290.356 79.8775 290.298 79.411 290.278 78.925L289.685 78.8765H289.121C289.257 79.0514 289.354 79.1778 289.471 79.3138C289.325 79.5277 289.189 79.7415 289.043 79.9359C288.967 80.0632 288.917 80.2046 288.897 80.3516C288.877 80.4986 288.887 80.6481 288.927 80.7912C288.992 81.1558 289.129 81.5037 289.332 81.8142C289.534 82.1247 289.796 82.3916 290.103 82.5989C290.337 82.7156 290.57 82.8517 290.813 82.9877V82.2296L290.055 81.7534Z" fill="#AF9B7B"/>
</g>
<g style="mix-blend-mode:multiply">
<path d="M290.316 78.0797C290.283 78.1256 290.253 78.1744 290.229 78.2254L290.793 78.9252V77.4285L290.316 78.0797Z" fill="#AF9B7B"/>
</g>
<g style="mix-blend-mode:multiply">
<path d="M289.178 83.0753C288.977 82.9417 288.81 82.7632 288.691 82.5541C288.571 82.3449 288.501 82.1108 288.488 81.8701V74.5029C288.488 74.0656 288.799 73.8809 289.178 74.1044L290.812 75.0764V74.6098L289.178 73.6379C288.575 73.2977 288.079 73.5796 288.079 74.2794V81.6369C288.093 82.0251 288.201 82.4042 288.392 82.7424C288.583 83.0807 288.853 83.3681 289.178 83.5807L290.812 84.5527V84.0861L289.178 83.0753Z" fill="#AF9B7B"/>
</g>
<g style="mix-blend-mode:multiply">
<path d="M302.597 89.004L303.171 89.3345V84.4748L303.501 84.6692C303.287 84.0277 303.093 83.4057 302.879 82.7253L302.315 83.9111L302.646 84.0958L302.597 89.004Z" fill="#AF9B7B"/>
</g>
<g style="mix-blend-mode:multiply">
<path d="M300.732 87.9349L301.315 88.2653V83.4057L301.646 83.5903C301.432 82.9586 301.237 82.3366 301.023 81.6465L300.411 82.8322L300.732 83.0266V87.9349Z" fill="#AF9B7B"/>
</g>
<g style="mix-blend-mode:multiply">
<path d="M299.671 88.3819L304.242 91.0256V90.3258L299.671 87.6821V88.3819Z" fill="#AF9B7B"/>
</g>
<g style="mix-blend-mode:multiply">
<path d="M305.144 82.8516L298.765 79.1679C298.162 78.8278 297.667 79.1096 297.667 79.8094V87.1669C297.681 87.5551 297.788 87.9342 297.979 88.2725C298.171 88.6107 298.44 88.8982 298.765 89.1108L305.144 92.7944C305.747 93.1443 306.233 92.8527 306.233 92.1626V84.7954C306.22 84.4081 306.114 84.0295 305.925 83.6914C305.736 83.3532 305.468 83.0653 305.144 82.8516ZM305.835 91.8808C305.835 92.3181 305.524 92.5028 305.144 92.2793L298.765 88.6054C298.562 88.4733 298.393 88.2955 298.272 88.0861C298.15 87.8768 298.079 87.6418 298.065 87.4002V80.0232C298.065 79.5859 298.376 79.4012 298.765 79.6247L305.144 83.3084C305.347 83.4403 305.515 83.6184 305.635 83.8279C305.755 84.0374 305.823 84.2724 305.835 84.5135V91.8808Z" fill="#AF9B7B"/>
</g>
<g style="mix-blend-mode:multiply">
<path d="M290.812 74.5805L295.557 77.3213C295.876 77.5298 296.141 77.8097 296.332 78.1387C296.522 78.4678 296.634 78.8369 296.656 79.2166V86.5838C296.656 87.2739 296.16 87.5557 295.557 87.2156L290.812 84.4747V86.6519L297.035 90.248V50.9626L290.812 47.3665V74.5805Z" fill="#BBBDBF"/>
</g>
<g style="mix-blend-mode:multiply">
<path d="M291.308 76.6217C291.59 76.1357 292.455 76.3398 293.068 77.1951C293.178 77.3527 293.269 77.5223 293.34 77.7005C293.506 78.0893 293.651 78.4683 293.817 78.8766H294.167C294.118 79.3431 294.079 79.7804 294.031 80.247L292.932 78.9737H293.233C293.068 78.5655 292.932 78.167 292.747 77.7685C292.562 77.3701 292.076 77.1368 291.921 77.3603C291.57 77.8463 291.23 78.3323 290.89 78.828L290.812 78.9251V82.2491L292.115 82.9975L292.29 83.1044V83.8723L292.115 83.7654L290.812 83.0073V84.0667L295.557 86.8075C295.624 86.8649 295.707 86.9003 295.795 86.9087C295.883 86.9172 295.971 86.8983 296.048 86.8547C296.124 86.811 296.186 86.7448 296.223 86.665C296.261 86.5853 296.273 86.4958 296.258 86.409V79.0515C296.244 78.8097 296.174 78.5744 296.052 78.365C295.93 78.1555 295.761 77.9778 295.557 77.8463L290.812 75.1055V77.4284C290.977 77.1076 291.152 76.8841 291.308 76.6217ZM294.682 81.0926C295.013 81.9479 295.314 82.8032 295.655 83.6584C295.995 84.5137 295.8 85.3496 295.11 85.3204C294.97 85.3077 294.834 85.2646 294.711 85.1941C294.41 85.0386 294.108 84.8539 293.788 84.6692V85.1552L293 83.9986L292.796 83.7168L293.817 83.5321C293.817 83.6779 293.817 83.8042 293.817 83.9209C294.157 84.1055 294.478 84.3388 294.789 84.4749C295.1 84.6109 295.256 84.1833 295.1 83.7848L294.079 81.1314C294.079 81.0634 294.021 80.9954 293.992 80.9079H294.556L294.682 81.0926Z" fill="#BBBDBF"/>
</g>
<g style="mix-blend-mode:multiply">
<path d="M294.098 81.1119L295.119 83.7653C295.275 84.1637 295.119 84.5817 294.808 84.4553C294.497 84.329 294.166 84.086 293.835 83.9013C293.835 83.7847 293.835 83.6583 293.835 83.5125L292.814 83.6972L293.019 83.9791L293.806 85.1357V84.6497C294.127 84.8344 294.429 85.019 294.73 85.1746C294.852 85.2451 294.988 85.2882 295.129 85.3009C295.819 85.3009 296.004 84.4164 295.673 83.6389C295.343 82.8614 295.002 81.9283 294.701 81.073L294.594 80.8203H294.03C294.04 80.9953 294.069 81.0438 294.098 81.1119Z" fill="#AAAAAA"/>
</g>
<g style="mix-blend-mode:multiply">
<path d="M292.29 83.814V83.0462L292.115 82.9393L290.812 82.1909V82.9393L292.115 83.6974L292.29 83.814Z" fill="#AF9B7B"/>
</g>
<g style="mix-blend-mode:multiply">
<path d="M291.921 77.302C292.076 77.0784 292.572 77.302 292.747 77.7102C292.922 78.1184 293.068 78.5072 293.233 78.9154H292.932L294.031 80.1886C294.031 79.7221 294.118 79.2847 294.167 78.8182H293.817C293.651 78.41 293.506 78.0309 293.34 77.6422C293.269 77.4639 293.178 77.2944 293.068 77.1368C292.455 76.2815 291.59 76.0774 291.308 76.5633C291.152 76.8257 290.977 77.0687 290.812 77.3117V78.8085L290.89 78.7113C291.23 78.2836 291.619 77.788 291.921 77.302Z" fill="#AAAAAA"/>
</g>
<g style="mix-blend-mode:multiply">
<path d="M296.656 86.5839V79.2167C296.634 78.837 296.522 78.4679 296.332 78.1388C296.141 77.8098 295.876 77.5298 295.557 77.3214L290.812 74.5806V75.0471L295.557 77.7879C295.761 77.9194 295.93 78.0971 296.052 78.3066C296.174 78.516 296.244 78.7513 296.258 78.9931V86.3506C296.273 86.4375 296.261 86.5269 296.223 86.6067C296.186 86.6864 296.124 86.7527 296.048 86.7963C295.971 86.8399 295.883 86.8588 295.795 86.8504C295.707 86.8419 295.624 86.8066 295.557 86.7491L290.812 84.0083V84.4748L295.557 87.2156C296.16 87.5655 296.656 87.274 296.656 86.5839Z" fill="#AAAAAA"/>
</g>
<g style="mix-blend-mode:multiply">
<path d="M429.002 85.0676L392.828 64.1711L379.001 64.2781L344.966 78.6237L310.932 98.2664L344.966 117.899H355.245L391.963 96.9835L391.953 105.381L393.023 105.993L429.002 85.0676Z" fill="#BBBDBF"/>
</g>
<path d="M310.932 98.2666L344.966 117.9V78.6239L310.932 58.9812V98.2666Z" fill="url(#paint26_linear_2081_77947)"/>
<path d="M310.932 58.9811L344.966 78.6238L379.001 58.9811L344.966 39.3384L310.932 58.9811Z" fill="url(#paint27_linear_2081_77947)"/>
<path d="M379.001 98.2666L344.966 117.9V78.6239L379.001 58.9812V98.2666Z" fill="url(#paint28_linear_2081_77947)"/>
<g opacity="0.66">
<path d="M323.496 68.302L312.498 61.9553V67.3204L323.496 73.6671V68.302Z" fill="white"/>
<path d="M313.839 64.0449L313.479 63.8311V66.5622L313.839 66.776V64.0449Z" fill="#404041"/>
<path d="M314.881 64.6379L314.249 64.2686V67.0094L314.881 67.3787V64.6379Z" fill="#404041"/>
<path d="M315.688 65.1042L315.056 64.7446V67.4757L315.688 67.8451V65.1042Z" fill="#404041"/>
<path d="M316.553 65.6098L316.193 65.396V68.1368L316.553 68.3409V65.6098Z" fill="#404041"/>
<path d="M319.431 67.2622L319.062 67.0483V69.7892L319.431 70.003V67.2622Z" fill="#404041"/>
<path d="M320.579 67.9231L320.219 67.719V70.4501L320.579 70.6639V67.9231Z" fill="#404041"/>
<path d="M317.593 66.2026L316.96 65.843V68.5741L317.593 68.9435V66.2026Z" fill="#404041"/>
<path d="M318.41 66.6692L317.769 66.3096V69.0407L318.41 69.41V66.6692Z" fill="#404041"/>
<path d="M321.746 68.6032L321.114 68.2339V70.9747L321.746 71.3343V68.6032Z" fill="#404041"/>
<path d="M322.523 69.0503L322.085 68.7976V71.5287L322.523 71.7814V69.0503Z" fill="#404041"/>
</g>
<path d="M376.959 92.678L363.19 103.35L360.827 86.098L374.597 75.4165L376.959 92.678Z" fill="#BBBDBF"/>
<path d="M363.519 88.0806L362.586 88.8095L362.265 86.506L363.208 85.7771L363.519 88.0806Z" fill="#404041"/>
<path d="M365.922 86.2246L364.988 86.9535L364.667 84.6403L365.611 83.9114L365.922 86.2246Z" fill="#404041"/>
<path d="M368.402 84.3094L366.486 85.7867L366.263 84.115L368.169 82.6377L368.402 84.3094Z" fill="#404041"/>
<path d="M363.548 91.191L362.955 91.6478L362.731 89.9761L363.315 89.5193L363.548 91.191Z" fill="#404041"/>
<path d="M364.502 90.4522L363.909 90.909L363.686 89.2373L364.269 88.7805L364.502 90.4522Z" fill="#404041"/>
<path d="M365.377 89.7816L364.784 90.2384L364.551 88.5667L365.144 88.1099L365.377 89.7816Z" fill="#404041"/>
<path d="M366.904 88.5958L366.311 89.0526L366.077 87.3809L366.67 86.9241L366.904 88.5958Z" fill="#404041"/>
<path d="M367.857 87.857L367.264 88.3138L367.041 86.6421L367.624 86.1853L367.857 87.857Z" fill="#404041"/>
<path d="M368.732 87.1768L368.139 87.6336L367.906 85.9619L368.499 85.5051L368.732 87.1768Z" fill="#404041"/>
<path d="M369.49 86.5838L368.897 87.0406L368.673 85.3786L369.256 84.9121L369.49 86.5838Z" fill="#404041"/>
<path d="M363.869 93.533L363.275 93.9899L363.052 92.3181L363.635 91.8613L363.869 93.533Z" fill="#404041"/>
<path d="M364.823 92.7945L364.23 93.2513L364.006 91.5796L364.589 91.1228L364.823 92.7945Z" fill="#404041"/>
<path d="M366.281 91.6573L365.697 92.1141L365.464 90.4424L366.057 89.9856L366.281 91.6573Z" fill="#404041"/>
<path d="M367.225 90.9284L366.631 91.3949L366.398 89.7232L366.991 89.2664L367.225 90.9284Z" fill="#404041"/>
<path d="M368.179 90.1898L367.585 90.6466L367.352 88.9749L367.945 88.5181L368.179 90.1898Z" fill="#404041"/>
<path d="M369.053 89.5191L368.46 89.9759L368.227 88.3042L368.82 87.8474L369.053 89.5191Z" fill="#404041"/>
<path d="M370.764 88.1876L370.171 88.6444L369.947 86.9727L370.531 86.5159L370.764 88.1876Z" fill="#404041"/>
<path d="M371.639 87.5072L371.046 87.964L370.812 86.2923L371.406 85.8354L371.639 87.5072Z" fill="#404041"/>
<path d="M372.543 86.8077L371.959 87.2645L371.726 85.5928L372.319 85.136L372.543 86.8077Z" fill="#404041"/>
<path d="M373.507 86.0592L372.914 86.5257L372.68 84.854L373.273 84.3972L373.507 86.0592Z" fill="#404041"/>
<path d="M374.372 85.3885L373.788 85.8453L373.555 84.1736L374.148 83.7168L374.372 85.3885Z" fill="#404041"/>
<path d="M364.18 95.8465L363.587 96.3033L363.363 94.6316L363.956 94.1748L364.18 95.8465Z" fill="#404041"/>
<path d="M365.134 95.0983L364.551 95.5648L364.317 93.8931L364.911 93.4363L365.134 95.0983Z" fill="#404041"/>
<path d="M366.009 94.4276L365.416 94.8844L365.192 93.2127L365.775 92.7559L366.009 94.4276Z" fill="#404041"/>
<path d="M367.535 93.2415L366.952 93.6983L366.718 92.0266L367.311 91.5698L367.535 93.2415Z" fill="#404041"/>
<path d="M368.487 92.5028L367.904 92.9596L367.67 91.2879L368.264 90.8311L368.487 92.5028Z" fill="#404041"/>
<path d="M369.364 91.8226L368.771 92.2794L368.547 90.6174L369.14 90.1509L369.364 91.8226Z" fill="#404041"/>
<path d="M370.122 91.2393L369.538 91.6962L369.305 90.0244L369.898 89.5676L370.122 91.2393Z" fill="#404041"/>
<path d="M371.074 90.5008L370.49 90.9576L370.257 89.2859L370.85 88.8291L371.074 90.5008Z" fill="#404041"/>
<path d="M371.95 89.8204L371.357 90.2772L371.133 88.6055L371.726 88.1487L371.95 89.8204Z" fill="#404041"/>
<path d="M373.817 88.3722L373.224 88.829L373 87.1572L373.594 86.7004L373.817 88.3722Z" fill="#404041"/>
<path d="M374.694 87.7015L374.101 88.1583L373.877 86.4866L374.46 86.0298L374.694 87.7015Z" fill="#404041"/>
<path d="M364.841 100.677L364.258 101.134L364.024 99.4619L364.618 99.0051L364.841 100.677Z" fill="#404041"/>
<path d="M365.795 99.9383L365.212 100.395L364.979 98.7234L365.572 98.2666L365.795 99.9383Z" fill="#404041"/>
<path d="M366.67 99.2579L366.077 99.7147L365.853 98.043L366.446 97.5862L366.67 99.2579Z" fill="#404041"/>
<path d="M368.197 98.0721L367.613 98.5289L367.38 96.8572L367.973 96.4004L368.197 98.0721Z" fill="#404041"/>
<path d="M369.149 97.3333L368.565 97.7901L368.332 96.1184L368.925 95.6616L369.149 97.3333Z" fill="#404041"/>
<path d="M370.025 96.6627L369.432 97.1195L369.208 95.4478L369.802 94.991L370.025 96.6627Z" fill="#404041"/>
<path d="M370.783 96.0699L370.199 96.5267L369.966 94.855L370.559 94.3982L370.783 96.0699Z" fill="#404041"/>
<path d="M371.735 95.3314L371.152 95.7882L370.918 94.1165L371.512 93.6597L371.735 95.3314Z" fill="#404041"/>
<path d="M364.502 98.1788L363.909 98.6356L363.686 96.9639L364.279 96.5071L364.502 98.1788Z" fill="#404041"/>
<path d="M365.455 97.4403L364.871 97.8971L364.638 96.2254L365.231 95.7686L365.455 97.4403Z" fill="#404041"/>
<path d="M366.924 96.3128L366.331 96.7696L366.098 95.0979L366.691 94.6411L366.924 96.3128Z" fill="#404041"/>
<path d="M367.857 95.5841L367.264 96.0409L367.041 94.3692L367.634 93.9124L367.857 95.5841Z" fill="#404041"/>
<path d="M368.81 94.8453L368.227 95.3021L367.993 93.6304L368.586 93.1736L368.81 94.8453Z" fill="#404041"/>
<path d="M369.684 94.1649L369.091 94.6217L368.867 92.95L369.451 92.4932L369.684 94.1649Z" fill="#404041"/>
<path d="M371.396 92.8333L370.812 93.2901L370.579 91.6184L371.172 91.1616L371.396 92.8333Z" fill="#404041"/>
<path d="M372.272 92.1627L371.679 92.6195L371.456 90.9478L372.049 90.491L372.272 92.1627Z" fill="#404041"/>
<path d="M373.186 91.4532L372.593 91.91L372.369 90.2383L372.953 89.7815L373.186 91.4532Z" fill="#404041"/>
<path d="M375.013 90.0343L374.419 90.4911L374.196 88.8194L374.779 88.3625L375.013 90.0343Z" fill="#404041"/>
<path d="M369.51 83.4447L368.927 83.9015L368.693 82.2298L369.287 81.7729L369.51 83.4447Z" fill="#404041"/>
<path d="M373.389 80.4317L369.849 83.1823L369.616 81.5106L373.165 78.76L373.389 80.4317Z" fill="#404041"/>
<g style="mix-blend-mode:multiply">
<path d="M324.837 67.0093L331.061 70.6055L344.966 62.5773L338.733 58.9812L324.837 67.0093Z" fill="#BBBDBF"/>
</g>
<g style="mix-blend-mode:multiply">
<path d="M365.105 50.9626L358.872 47.3665L344.966 55.3849L351.199 58.981L365.105 50.9626Z" fill="#BBBDBF"/>
</g>
<g style="mix-blend-mode:multiply">
<path d="M351.2 58.981L344.966 55.3849L331.061 47.3665L324.837 50.9626L338.733 58.981L344.966 62.5772L358.872 70.6053L365.105 67.0091L351.2 58.981Z" fill="#C6C6C6"/>
</g>
<g style="mix-blend-mode:multiply">
<path d="M361.847 68.8947L327.813 49.2521L328.085 49.0674L362.129 68.7198L361.847 68.8947Z" fill="#D0D2D3"/>
</g>
<g style="mix-blend-mode:multiply">
<path d="M365.104 106.285V66.9998L358.871 70.5959V109.881L365.104 106.285Z" fill="#BBBDBF"/>
</g>
<g style="mix-blend-mode:multiply">
<path d="M318.719 92.6584C318.292 92.1366 317.798 91.6727 317.251 91.2782L317.076 91.1616V90.9089C317.083 90.8953 317.086 90.8804 317.086 90.8652C317.086 90.85 317.083 90.835 317.076 90.8214L316.696 90.6076H316.648V90.8506H316.599C316.292 90.6966 315.964 90.5855 315.627 90.5201C315.306 90.4552 314.975 90.4552 314.654 90.5201C314.468 90.5567 314.288 90.6189 314.12 90.7048C313.767 90.8957 313.481 91.191 313.303 91.5504L313.186 91.7642C313.186 91.7642 313.186 91.7642 313.244 91.7642C313.323 91.7168 313.408 91.6808 313.497 91.6573C313.623 91.6449 313.75 91.6603 313.869 91.7022C313.989 91.7442 314.097 91.8118 314.188 91.9003C314.385 92.0578 314.552 92.2486 314.684 92.464C314.684 92.5223 314.742 92.5223 314.771 92.5126C314.893 92.4696 315.025 92.4587 315.152 92.4808C315.28 92.5029 315.4 92.5574 315.5 92.6389C315.744 92.805 315.947 93.0244 316.094 93.2804C316.094 93.3484 316.162 93.3387 316.191 93.2804C316.332 93.2266 316.488 93.2266 316.628 93.2804C316.633 93.3061 316.633 93.3325 316.628 93.3582V96.9543C316.628 97.0806 316.628 97.2167 316.628 97.3431C316.628 97.4694 316.453 97.6347 316.239 97.518C316.118 97.4616 316.017 97.3702 315.948 97.2556C315.861 97.1245 315.808 96.9744 315.792 96.8182C315.792 96.7405 315.792 96.6627 315.792 96.585C315.793 96.5685 315.789 96.5521 315.78 96.5382C315.772 96.5242 315.759 96.5134 315.743 96.5072L315.413 96.3712H315.364C315.354 96.5584 315.377 96.7459 315.432 96.9251C315.497 97.2039 315.643 97.4574 315.85 97.6541L316.103 97.8874L316.346 98.0331H316.395C316.468 98.0658 316.548 98.0827 316.628 98.0827C316.709 98.0827 316.788 98.0658 316.862 98.0331C316.913 98.0104 316.958 97.9769 316.995 97.935C317.032 97.893 317.06 97.8436 317.076 97.7902C317.116 97.6182 317.136 97.442 317.134 97.2653V93.6303C317.296 93.7688 317.434 93.933 317.542 94.1163C317.542 94.1746 317.601 94.194 317.64 94.1746C317.735 94.1401 317.836 94.1266 317.937 94.135C318.037 94.1434 318.135 94.1735 318.223 94.2232C318.533 94.3907 318.792 94.6393 318.972 94.9424C318.972 94.9424 319.021 95.0202 319.05 95.0104C319.105 94.984 319.164 94.9676 319.225 94.9618C319.374 94.9592 319.522 94.9881 319.66 95.0467C319.797 95.1053 319.921 95.1923 320.022 95.302C320.22 95.4917 320.381 95.7156 320.499 95.9629V96.0115C320.503 96.0024 320.505 95.9925 320.505 95.9824C320.505 95.9723 320.503 95.9623 320.499 95.9532C320.357 95.4689 320.175 94.9975 319.954 94.5439C319.618 93.869 319.204 93.2361 318.719 92.6584Z" fill="#AF9B7B"/>
</g>
<g style="mix-blend-mode:multiply">
<path d="M320.014 91.4339L313.635 87.7989C313.032 87.449 312.536 87.7406 312.536 88.4306V95.7979C312.558 96.1777 312.669 96.5471 312.86 96.8763C313.051 97.2055 313.316 97.4853 313.635 97.6931L320.014 101.377C320.617 101.717 321.113 101.435 321.113 100.745V93.3778C321.098 92.9896 320.991 92.6104 320.8 92.2722C320.609 91.934 320.339 91.6465 320.014 91.4339ZM320.704 100.463C320.704 100.9 320.393 101.085 320.014 100.862L313.635 97.178C313.431 97.0465 313.262 96.8688 313.14 96.6594C313.019 96.4499 312.948 96.2147 312.935 95.9728V88.6153C312.92 88.5285 312.931 88.4391 312.969 88.3593C313.007 88.2795 313.068 88.2133 313.144 88.1696C313.221 88.126 313.309 88.1071 313.397 88.1156C313.485 88.124 313.568 88.1594 313.635 88.2168L320.014 91.9004C320.215 92.0314 320.382 92.208 320.502 92.4157C320.622 92.6234 320.691 92.8564 320.704 93.0959V100.463Z" fill="#AF9B7B"/>
</g>
<g style="mix-blend-mode:multiply">
<path d="M324.078 101.406C323.777 101.231 323.485 100.599 323.611 100.346C323.749 100.107 323.901 99.8764 324.068 99.6562L324.379 100.035C324.379 99.5396 324.331 99.0634 324.311 98.5774H323.718H323.154C323.29 98.7426 323.388 98.8787 323.495 99.0148C323.349 99.2286 323.222 99.4424 323.076 99.6271C322.923 99.8844 322.878 100.192 322.95 100.482C323.018 100.847 323.159 101.195 323.362 101.505C323.566 101.815 323.829 102.082 324.136 102.29L324.836 102.689V101.921L324.078 101.406Z" fill="#AF9B7B"/>
</g>
<g style="mix-blend-mode:multiply">
<path d="M324.351 97.6833C324.322 97.7341 324.29 97.7828 324.254 97.8291L324.828 98.5289V97.0127L324.351 97.6833Z" fill="#AF9B7B"/>
</g>
<g style="mix-blend-mode:multiply">
<path d="M323.213 102.708C323.011 102.576 322.842 102.398 322.72 102.188C322.599 101.979 322.528 101.744 322.513 101.503V94.1454C322.513 93.6983 322.834 93.5234 323.213 93.7469L324.837 94.7189V94.2621L323.213 93.2901C322.61 92.9402 322.114 93.2221 322.114 93.9219V101.279C322.129 101.667 322.237 102.046 322.428 102.384C322.619 102.722 322.888 103.01 323.213 103.223L324.837 104.195V103.738L323.213 102.708Z" fill="#AF9B7B"/>
</g>
<g style="mix-blend-mode:multiply">
<path d="M336.623 108.647L337.206 108.977V104.117L337.537 104.302C337.323 103.67 337.119 103.048 336.914 102.358L336.302 103.544L336.623 103.738V108.647Z" fill="#AF9B7B"/>
</g>
<g style="mix-blend-mode:multiply">
<path d="M334.764 107.568L335.348 107.908V103.048L335.678 103.233C335.464 102.592 335.26 101.97 335.056 101.289L334.443 102.475L334.764 102.66V107.568Z" fill="#AF9B7B"/>
</g>
<g style="mix-blend-mode:multiply">
<path d="M333.695 108.024L338.275 110.658V109.959L333.695 107.325V108.024Z" fill="#AF9B7B"/>
</g>
<g style="mix-blend-mode:multiply">
<path d="M339.17 102.494L332.8 98.8109C332.188 98.461 331.702 98.7428 331.702 99.4426V106.8C331.715 107.189 331.822 107.568 332.013 107.906C332.205 108.245 332.475 108.532 332.8 108.744L339.17 112.418C339.782 112.768 340.269 112.486 340.269 111.786V104.429C340.255 104.042 340.148 103.663 339.957 103.327C339.766 102.99 339.495 102.704 339.17 102.494ZM339.87 111.514C339.87 111.961 339.559 112.146 339.17 111.922L332.8 108.209C332.596 108.079 332.426 107.901 332.305 107.691C332.183 107.482 332.113 107.246 332.1 107.004V99.6467C332.1 99.1997 332.412 99.0247 332.8 99.2482L339.17 102.922C339.373 103.054 339.542 103.232 339.664 103.441C339.785 103.651 339.856 103.886 339.87 104.127V111.514Z" fill="#AF9B7B"/>
</g>
<g style="mix-blend-mode:multiply">
<path d="M324.837 94.2235L329.592 96.9643C329.911 97.1722 330.177 97.452 330.368 97.7812C330.559 98.1104 330.669 98.4798 330.691 98.8596V106.266C330.691 106.965 330.195 107.238 329.592 106.897L324.837 104.157V106.266L331.071 109.862V70.5959L324.837 66.9998V94.2235Z" fill="#BBBDBF"/>
</g>
<g style="mix-blend-mode:multiply">
<path d="M325.343 96.2642C325.625 95.7783 326.491 95.9824 327.093 96.8279C327.21 96.9864 327.305 97.1597 327.375 97.3431C327.541 97.7221 327.687 98.1109 327.842 98.5094H328.202C328.153 98.9759 328.105 99.4036 328.066 99.8701L326.967 98.6066L327.268 98.558C327.103 98.1595 326.957 97.7513 326.782 97.3625C326.607 96.9737 326.111 96.7308 325.946 96.9543L324.915 98.4122C324.893 98.4501 324.866 98.4859 324.837 98.5191V101.833L326.14 102.591L326.325 102.698V103.466L326.15 103.359L324.837 102.601V103.661L329.592 106.401C329.972 106.625 330.283 106.401 330.283 105.993V98.6357C330.269 98.3951 330.2 98.161 330.08 97.9518C329.96 97.7427 329.793 97.5642 329.592 97.4305L324.837 94.6897V97.0223C325.012 96.7696 325.187 96.5461 325.343 96.2642ZM328.717 100.725C329.048 101.581 329.349 102.446 329.69 103.291C330.03 104.137 329.836 104.992 329.145 104.963C329.005 104.948 328.87 104.905 328.746 104.837C328.445 104.681 328.144 104.496 327.823 104.312V104.788L327.035 103.641L326.831 103.35L327.852 103.165V103.554C328.162 103.761 328.487 103.947 328.824 104.108C329.126 104.234 329.291 103.826 329.135 103.418C328.795 102.543 328.455 101.658 328.105 100.774C328.105 100.706 328.056 100.638 328.027 100.55L328.571 100.434C328.649 100.57 328.678 100.648 328.717 100.725Z" fill="#BBBDBF"/>
</g>
<g style="mix-blend-mode:multiply">
<path d="M328.123 100.755C328.474 101.639 328.814 102.523 329.154 103.398C329.31 103.806 329.154 104.215 328.843 104.088C328.506 103.927 328.181 103.742 327.871 103.534V103.145L326.85 103.33L327.054 103.622L327.841 104.769V104.322C328.162 104.506 328.464 104.691 328.765 104.846C328.888 104.915 329.024 104.957 329.164 104.973C329.854 104.973 330.039 104.088 329.709 103.301C329.378 102.514 329.038 101.59 328.736 100.735C328.736 100.657 328.668 100.58 328.629 100.482L328.065 100.541C328.075 100.618 328.104 100.687 328.123 100.755Z" fill="#AAAAAA"/>
</g>
<g style="mix-blend-mode:multiply">
<path d="M326.325 103.457V102.689L326.14 102.582L324.837 101.824V102.592L326.15 103.35L326.325 103.457Z" fill="#AF9B7B"/>
</g>
<g style="mix-blend-mode:multiply">
<path d="M325.946 96.9448C326.111 96.7212 326.607 96.9448 326.782 97.353C326.957 97.7612 327.103 98.1499 327.268 98.5484L326.967 98.597L328.066 99.8605C328.066 99.394 328.153 98.9664 328.202 98.4998H327.842C327.687 98.1013 327.541 97.7126 327.375 97.3335C327.305 97.1501 327.21 96.9769 327.093 96.8184C326.491 95.9728 325.625 95.7687 325.343 96.2547C325.187 96.5171 325.012 96.7601 324.837 97.0031V98.4901C324.866 98.4569 324.893 98.4211 324.915 98.3832L325.946 96.9448Z" fill="#AAAAAA"/>
</g>
<g style="mix-blend-mode:multiply">
<path d="M330.691 106.266V98.9081C330.669 98.5282 330.559 98.1588 330.368 97.8297C330.177 97.5005 329.911 97.2207 329.592 97.0128L324.837 94.272V94.7288L329.592 97.4696C329.793 97.6033 329.96 97.7817 330.08 97.9909C330.2 98.2001 330.269 98.4342 330.283 98.6748V106.032C330.283 106.479 329.972 106.664 329.592 106.441L324.837 103.7V104.156L329.592 106.897C330.195 107.238 330.691 106.917 330.691 106.266Z" fill="#AAAAAA"/>
</g>
<path d="M310.932 58.981L344.966 78.6237V39.3383L310.932 19.7053V58.981Z" fill="url(#paint29_linear_2081_77947)"/>
<path d="M310.932 19.7054L344.966 39.3384L379.001 19.7054L344.966 0.0627441L310.932 19.7054Z" fill="url(#paint30_linear_2081_77947)"/>
<path d="M379.001 58.981L344.966 78.6237V39.3383L379.001 19.7053V58.981Z" fill="url(#paint31_linear_2081_77947)"/>
<g opacity="0.66">
<path d="M323.496 29.0164L312.498 22.6697V28.0347L323.496 34.3814V29.0164Z" fill="white"/>
<path d="M313.839 24.7592L313.479 24.5454V27.2863L313.839 27.5001V24.7592Z" fill="#404041"/>
<path d="M314.881 25.362L314.249 24.9927V27.7335L314.881 28.0931V25.362Z" fill="#404041"/>
<path d="M315.688 25.8283L315.056 25.459V28.1998L315.688 28.5594V25.8283Z" fill="#404041"/>
<path d="M316.553 26.324L316.193 26.1199V28.851L316.553 29.0648V26.324Z" fill="#404041"/>
<path d="M319.431 27.986L319.062 27.7722V30.5131L319.431 30.7172V27.986Z" fill="#404041"/>
<path d="M320.579 28.6472L320.219 28.4333V31.1742L320.579 31.388V28.6472Z" fill="#404041"/>
<path d="M317.593 26.9267L316.96 26.5574V29.2982L317.593 29.6578V26.9267Z" fill="#404041"/>
<path d="M318.41 27.3933L317.769 27.0239V29.7648L318.41 30.1341V27.3933Z" fill="#404041"/>
<path d="M321.746 29.3179L321.114 28.9583V31.6894L321.746 32.0587V29.3179Z" fill="#404041"/>
<path d="M322.523 29.7647L322.085 29.512V32.2528L322.523 32.5055V29.7647Z" fill="#404041"/>
</g>
<path d="M376.959 53.3924L363.19 64.0642L360.827 46.8124L374.597 36.1406L376.959 53.3924Z" fill="#BBBDBF"/>
<path d="M363.519 48.8051L362.586 49.5341L362.265 47.2209L363.208 46.4919L363.519 48.8051Z" fill="#404041"/>
<path d="M365.922 46.939L364.988 47.6679L364.667 45.3644L365.611 44.6355L365.922 46.939Z" fill="#404041"/>
<path d="M368.402 45.0243L366.486 46.5016L366.263 44.8299L368.169 43.3525L368.402 45.0243Z" fill="#404041"/>
<path d="M363.548 51.9151L362.955 52.3719L362.731 50.7002L363.315 50.2434L363.548 51.9151Z" fill="#404041"/>
<path d="M364.502 51.1766L363.909 51.6334L363.686 49.9617L364.269 49.5049L364.502 51.1766Z" fill="#404041"/>
<path d="M365.377 50.4962L364.784 50.953L364.551 49.2813L365.144 48.8245L365.377 50.4962Z" fill="#404041"/>
<path d="M366.904 49.3104L366.311 49.7672L366.077 48.0955L366.67 47.6387L366.904 49.3104Z" fill="#404041"/>
<path d="M367.857 48.5719L367.264 49.0287L367.041 47.357L367.624 46.9001L367.857 48.5719Z" fill="#404041"/>
<path d="M368.732 47.9012L368.139 48.358L367.906 46.6863L368.499 46.2197L368.732 47.9012Z" fill="#404041"/>
<path d="M369.49 47.3084L368.897 47.7652L368.673 46.0935L369.256 45.6367L369.49 47.3084Z" fill="#404041"/>
<path d="M363.869 54.2576L363.275 54.7144L363.052 53.0427L363.635 52.5762L363.869 54.2576Z" fill="#404041"/>
<path d="M364.823 53.5091L364.23 53.9756L364.006 52.2942L364.589 51.8374L364.823 53.5091Z" fill="#404041"/>
<path d="M366.281 52.3817L365.697 52.8385L365.464 51.1668L366.057 50.71L366.281 52.3817Z" fill="#404041"/>
<path d="M367.225 51.6527L366.631 52.1095L366.398 50.4378L366.991 49.981L367.225 51.6527Z" fill="#404041"/>
<path d="M368.179 50.9139L367.585 51.3707L367.352 49.699L367.945 49.2422L368.179 50.9139Z" fill="#404041"/>
<path d="M369.053 50.234L368.46 50.6908L368.227 49.0191L368.82 48.5623L369.053 50.234Z" fill="#404041"/>
<path d="M370.764 48.912L370.171 49.3688L369.947 47.697L370.531 47.2402L370.764 48.912Z" fill="#404041"/>
<path d="M371.639 48.2315L371.046 48.6883L370.812 47.0166L371.406 46.5598L371.639 48.2315Z" fill="#404041"/>
<path d="M372.543 47.5221L371.959 47.9789L371.726 46.3071L372.319 45.8503L372.543 47.5221Z" fill="#404041"/>
<path d="M373.507 46.7833L372.914 47.2401L372.68 45.5684L373.273 45.1116L373.507 46.7833Z" fill="#404041"/>
<path d="M374.372 46.1029L373.788 46.5597L373.555 44.8977L374.148 44.4312L374.372 46.1029Z" fill="#404041"/>
<path d="M364.18 56.5611L363.587 57.0179L363.363 55.3462L363.956 54.8894L364.18 56.5611Z" fill="#404041"/>
<path d="M365.134 55.8224L364.551 56.2792L364.317 54.6074L364.911 54.1506L365.134 55.8224Z" fill="#404041"/>
<path d="M366.009 55.1419L365.416 55.6085L365.192 53.927L365.775 53.4702L366.009 55.1419Z" fill="#404041"/>
<path d="M367.535 53.9659L366.952 54.4227L366.718 52.751L367.311 52.2942L367.535 53.9659Z" fill="#404041"/>
<path d="M368.487 53.2274L367.904 53.6842L367.67 52.0125L368.264 51.5557L368.487 53.2274Z" fill="#404041"/>
<path d="M369.364 52.547L368.771 53.0038L368.547 51.3321L369.14 50.8752L369.364 52.547Z" fill="#404041"/>
<path d="M370.122 51.9539L369.538 52.4108L369.305 50.739L369.898 50.2822L370.122 51.9539Z" fill="#404041"/>
<path d="M371.074 51.2154L370.49 51.6722L370.257 50.0005L370.85 49.5437L371.074 51.2154Z" fill="#404041"/>
<path d="M371.95 50.545L371.357 51.0018L371.133 49.3301L371.726 48.8733L371.95 50.545Z" fill="#404041"/>
<path d="M373.817 49.0965L373.224 49.5533L373 47.8816L373.594 47.4248L373.817 49.0965Z" fill="#404041"/>
<path d="M374.694 48.4161L374.101 48.8729L373.877 47.2012L374.46 46.7444L374.694 48.4161Z" fill="#404041"/>
<path d="M364.841 61.3914L364.258 61.8483L364.024 60.1765L364.618 59.7197L364.841 61.3914Z" fill="#404041"/>
<path d="M365.795 60.6529L365.212 61.1097L364.979 59.438L365.572 58.9812L365.795 60.6529Z" fill="#404041"/>
<path d="M366.67 59.9823L366.077 60.4391L365.853 58.7674L366.446 58.3105L366.67 59.9823Z" fill="#404041"/>
<path d="M368.197 58.7965L367.613 59.2533L367.38 57.5816L367.973 57.1248L368.197 58.7965Z" fill="#404041"/>
<path d="M369.149 58.0577L368.565 58.5145L368.332 56.8428L368.925 56.386L369.149 58.0577Z" fill="#404041"/>
<path d="M370.025 57.3775L369.432 57.8343L369.208 56.1626L369.802 55.7058L370.025 57.3775Z" fill="#404041"/>
<path d="M370.783 56.7846L370.199 57.2511L369.966 55.5794L370.559 55.1226L370.783 56.7846Z" fill="#404041"/>
<path d="M371.735 56.0457L371.152 56.5025L370.918 54.8308L371.512 54.374L371.735 56.0457Z" fill="#404041"/>
<path d="M364.502 58.9034L363.909 59.3602L363.686 57.6885L364.279 57.2317L364.502 58.9034Z" fill="#404041"/>
<path d="M365.455 58.1646L364.871 58.6214L364.638 56.9497L365.231 56.4929L365.455 58.1646Z" fill="#404041"/>
<path d="M366.924 57.0274L366.331 57.4842L366.098 55.8125L366.691 55.3557L366.924 57.0274Z" fill="#404041"/>
<path d="M367.857 56.2984L367.264 56.7552L367.041 55.0835L367.634 54.6267L367.857 56.2984Z" fill="#404041"/>
<path d="M368.81 55.5599L368.227 56.0167L367.993 54.345L368.586 53.8882L368.81 55.5599Z" fill="#404041"/>
<path d="M369.684 54.8892L369.091 55.3461L368.867 53.6743L369.451 53.2175L369.684 54.8892Z" fill="#404041"/>
<path d="M371.396 53.5577L370.812 54.0145L370.579 52.3428L371.172 51.886L371.396 53.5577Z" fill="#404041"/>
<path d="M372.272 52.8773L371.679 53.3341L371.456 51.6624L372.049 51.2056L372.272 52.8773Z" fill="#404041"/>
<path d="M373.186 52.1778L372.593 52.6346L372.369 50.9629L372.953 50.5061L373.186 52.1778Z" fill="#404041"/>
<path d="M375.013 50.7584L374.419 51.2152L374.196 49.5435L374.779 49.0867L375.013 50.7584Z" fill="#404041"/>
<path d="M369.51 44.1593L368.927 44.6161L368.693 42.9444L369.287 42.4875L369.51 44.1593Z" fill="#404041"/>
<path d="M373.389 41.1558L369.849 43.8967L369.616 42.225L373.165 39.4841L373.389 41.1558Z" fill="#404041"/>
<g style="mix-blend-mode:multiply">
<path d="M324.837 27.7237L331.061 31.3199L344.966 23.3015L338.733 19.7053L324.837 27.7237Z" fill="#BBBDBF"/>
</g>
<g style="mix-blend-mode:multiply">
<path d="M365.105 11.6774L358.872 8.0813L344.966 16.1094L351.199 19.7056L365.105 11.6774Z" fill="#BBBDBF"/>
</g>
<g style="mix-blend-mode:multiply">
<path d="M351.2 19.7056L344.966 16.1094L331.061 8.0813L324.837 11.6774L338.733 19.7056L344.966 23.3017L358.872 31.3201L365.105 27.724L351.2 19.7056Z" fill="#C6C6C6"/>
</g>
<g style="mix-blend-mode:multiply">
<path d="M361.847 29.6094L327.813 9.96669L328.085 9.79175L362.129 29.4344L361.847 29.6094Z" fill="#D0D2D3"/>
</g>
<g style="mix-blend-mode:multiply">
<path d="M365.104 67.0093V27.7239L358.871 31.32V70.6054L365.104 67.0093Z" fill="#BBBDBF"/>
</g>
<g style="mix-blend-mode:multiply">
<path d="M318.719 53.3245C318.292 52.8055 317.798 52.3448 317.251 51.9541L317.076 51.8374V51.575C317.083 51.5632 317.086 51.5498 317.086 51.5362C317.086 51.5225 317.083 51.5091 317.076 51.4973L316.696 51.2834H316.648V51.5264H316.599C316.29 51.374 315.964 51.2598 315.627 51.1863C315.305 51.1257 314.976 51.1257 314.654 51.1863C314.468 51.2228 314.288 51.285 314.12 51.3709C313.766 51.5561 313.48 51.8487 313.303 52.2068L313.186 52.4206V52.4789C313.186 52.4789 313.186 52.4789 313.244 52.4789C313.321 52.4246 313.406 52.385 313.497 52.3623C313.624 52.3543 313.75 52.3727 313.869 52.4162C313.988 52.4597 314.096 52.5274 314.188 52.615C314.387 52.7701 314.555 52.9614 314.684 53.1787C314.684 53.1787 314.742 53.237 314.771 53.1787C314.894 53.1351 315.026 53.1247 315.154 53.1486C315.282 53.1725 315.402 53.2299 315.5 53.3148C315.747 53.4772 315.951 53.6974 316.094 53.9562C316.094 54.0146 316.162 54.0146 316.191 53.9562C316.332 53.9024 316.488 53.9024 316.628 53.9562C316.633 53.982 316.633 54.0083 316.628 54.034V57.6302C316.628 57.7662 316.628 57.9023 316.628 58.0286C316.628 58.155 316.453 58.3105 316.239 58.2036C316.122 58.1411 316.022 58.051 315.948 57.9412C315.86 57.8072 315.806 57.6537 315.792 57.4941C315.792 57.4163 315.792 57.3386 315.792 57.2608C315.792 57.2446 315.787 57.2288 315.779 57.2151C315.77 57.2013 315.758 57.1903 315.743 57.1831L315.413 57.0567H315.364C315.354 57.2439 315.377 57.4314 315.432 57.6107C315.499 57.8915 315.644 58.1476 315.85 58.3494L316.103 58.5826L316.346 58.7187H316.395C316.468 58.7514 316.548 58.7683 316.628 58.7683C316.709 58.7683 316.788 58.7514 316.862 58.7187C316.913 58.6944 316.959 58.6592 316.996 58.6156C317.033 58.572 317.06 58.521 317.076 58.466C317.116 58.2973 317.136 58.1243 317.134 57.9509V54.1701C317.295 54.3057 317.433 54.4665 317.542 54.6463C317.542 54.7046 317.601 54.7338 317.64 54.7144C317.734 54.6748 317.836 54.6586 317.937 54.6671C318.039 54.6755 318.137 54.7084 318.223 54.763C318.535 54.9275 318.795 55.1768 318.972 55.4822C318.972 55.4822 319.021 55.5502 319.05 55.5405H319.225C319.375 55.5397 319.523 55.5704 319.661 55.6307C319.798 55.6909 319.921 55.7794 320.022 55.8904C320.217 56.0784 320.378 56.2987 320.499 56.5416C320.359 56.0568 320.177 55.5852 319.954 55.1323C319.612 54.4848 319.198 53.8783 318.719 53.3245Z" fill="#AF9B7B"/>
</g>
<g style="mix-blend-mode:multiply">
<path d="M320.014 52.1581L313.635 48.4745C313.032 48.1246 312.536 48.4064 312.536 49.1062V56.4637C312.549 56.8523 312.655 57.232 312.847 57.5705C313.038 57.909 313.309 58.1962 313.635 58.4076L320.014 62.0912C320.617 62.4411 321.113 62.1592 321.113 61.4594V54.1019C321.1 53.7134 320.993 53.3337 320.802 52.9952C320.611 52.6567 320.34 52.3695 320.014 52.1581ZM320.704 61.1776C320.704 61.6247 320.393 61.7996 320.014 61.5858L313.635 57.9022C313.433 57.7696 313.264 57.5916 313.142 57.3824C313.021 57.1731 312.95 56.9385 312.935 56.697V49.3395C312.935 48.8924 313.256 48.7174 313.635 48.9313L320.014 52.6149C320.215 52.748 320.382 52.9263 320.502 53.1356C320.622 53.3449 320.691 53.5793 320.704 53.8201V61.1776Z" fill="#AF9B7B"/>
</g>
<g style="mix-blend-mode:multiply">
<path d="M324.078 62.1108C323.777 61.9261 323.485 61.3041 323.611 61.0514C323.749 60.8119 323.901 60.5814 324.068 60.3613C324.175 60.4877 324.272 60.5946 324.379 60.7404C324.379 60.235 324.331 59.7684 324.311 59.2825H323.718H323.154L323.495 59.7198C323.349 59.9434 323.222 60.1475 323.076 60.3419C322.923 60.5992 322.878 60.9066 322.95 61.1972C323.018 61.5619 323.159 61.9094 323.362 62.2197C323.566 62.53 323.829 62.7969 324.136 63.005C324.37 63.1216 324.603 63.2674 324.836 63.3937V62.5287L324.078 62.1108Z" fill="#AF9B7B"/>
</g>
<g style="mix-blend-mode:multiply">
<path d="M324.351 58.4076L324.254 58.5534L324.828 59.2532V57.7273C324.682 57.9606 324.516 58.1744 324.351 58.4076Z" fill="#AF9B7B"/>
</g>
<g style="mix-blend-mode:multiply">
<path d="M323.213 63.4326C323.011 63.2995 322.843 63.1214 322.721 62.9122C322.6 62.7031 322.529 62.4687 322.513 62.2274V54.8602C322.498 54.7734 322.51 54.684 322.547 54.6042C322.585 54.5244 322.646 54.4582 322.723 54.4146C322.799 54.3709 322.888 54.3521 322.975 54.3605C323.063 54.3689 323.146 54.4043 323.213 54.4617L324.837 55.4337V54.9671L323.213 53.9952C322.61 53.6453 322.114 53.9272 322.114 54.627V61.9845C322.129 62.3727 322.236 62.7518 322.427 63.09C322.618 63.4282 322.888 63.7157 323.213 63.9283L324.837 64.9003V64.4337L323.213 63.4326Z" fill="#AF9B7B"/>
</g>
<g style="mix-blend-mode:multiply">
<path d="M336.623 69.3321L337.206 69.6723V64.8127L337.537 64.9973C337.323 64.3559 337.119 63.7338 336.914 63.0535L336.302 64.2392L336.623 64.4239V69.3321Z" fill="#AF9B7B"/>
</g>
<g style="mix-blend-mode:multiply">
<path d="M334.764 68.2921L335.348 68.6226V63.7629L335.678 63.9573C335.464 63.3158 335.26 62.6938 335.056 62.0134L334.443 63.1992L334.764 63.3936V68.2921Z" fill="#AF9B7B"/>
</g>
<g style="mix-blend-mode:multiply">
<path d="M333.695 68.7393L338.275 71.383V70.6832L333.695 68.0396V68.7393Z" fill="#AF9B7B"/>
</g>
<g style="mix-blend-mode:multiply">
<path d="M339.17 63.2089L332.8 59.535C332.188 59.1851 331.702 59.467 331.702 60.1668V67.5243C331.714 67.913 331.82 68.293 332.011 68.6316C332.203 68.9702 332.473 69.2573 332.8 69.4681L339.17 73.1517C339.782 73.5016 340.269 73.2198 340.269 72.52V65.1527C340.256 64.7642 340.149 64.3845 339.958 64.046C339.767 63.7075 339.496 63.4203 339.17 63.2089ZM339.87 72.2381C339.87 72.6852 339.559 72.8601 339.17 72.6366L332.8 68.9627C332.598 68.8307 332.428 68.6528 332.307 68.4435C332.185 68.2341 332.114 67.9992 332.1 67.7575V60.3903C332.1 59.9529 332.412 59.7683 332.8 59.9918L339.17 63.6754C339.374 63.8063 339.544 63.9839 339.666 64.1935C339.787 64.403 339.857 64.6386 339.87 64.8806V72.2381Z" fill="#AF9B7B"/>
</g>
<g style="mix-blend-mode:multiply">
<path d="M324.837 54.9379L329.592 57.6787C329.917 57.8919 330.186 58.1796 330.377 58.5176C330.569 58.8557 330.676 59.2346 330.691 59.6226V66.9898C330.691 67.6799 330.195 67.9618 329.592 67.6216L324.837 64.8807V67.0579L331.071 70.654V31.32L324.837 27.7239V54.9379Z" fill="#BBBDBF"/>
</g>
<g style="mix-blend-mode:multiply">
<path d="M325.343 56.979C325.625 56.493 326.491 56.6971 327.093 57.5524C327.21 57.7075 327.305 57.8775 327.375 58.0578C327.541 58.4466 327.687 58.8256 327.842 59.2339H328.202C328.153 59.7004 328.105 60.1378 328.066 60.6043L326.967 59.3311H327.268C327.103 58.9228 326.957 58.5243 326.782 58.1259C326.607 57.7274 326.111 57.4941 325.946 57.7274L324.915 59.1853L324.837 59.2922V62.5287L326.14 63.2771L326.325 63.384V64.1518L326.15 64.0449L324.837 63.2868V64.3462L329.592 67.087C329.972 67.3106 330.283 67.087 330.283 66.6886V59.3311C330.27 59.0903 330.201 58.8558 330.081 58.6466C329.961 58.4373 329.794 58.259 329.592 58.1259L324.837 55.385V57.7079C325.012 57.4844 325.187 57.2414 325.343 56.979ZM328.717 61.4499C329.048 62.3052 329.349 63.1604 329.69 64.0157C330.03 64.871 329.836 65.7069 329.145 65.6778C329.003 65.6718 328.866 65.6282 328.746 65.5514C328.445 65.3959 328.144 65.2112 327.823 65.0266V65.5125L327.035 64.3656L326.831 64.0741L327.852 63.8894V64.2782C328.164 64.4824 328.489 64.6674 328.824 64.8322C329.126 64.9585 329.291 64.5406 329.135 64.1421C328.795 63.2576 328.455 62.3732 328.105 61.4887C328.105 61.4207 328.056 61.3527 328.027 61.2652L328.591 61.2166L328.717 61.4499Z" fill="#BBBDBF"/>
</g>
<g style="mix-blend-mode:multiply">
<path d="M328.123 61.4693C328.474 62.3538 328.814 63.2382 329.154 64.1227C329.31 64.5212 329.154 64.9391 328.843 64.8128C328.508 64.648 328.183 64.463 327.871 64.2587V63.87L326.85 64.0547L327.054 64.3462L327.841 65.4931V65.0071C328.162 65.1918 328.464 65.3765 328.765 65.532C328.885 65.6088 329.022 65.6524 329.164 65.6583C329.854 65.6583 330.039 64.7836 329.709 63.9963C329.378 63.2091 329.038 62.2857 328.736 61.4304L328.629 61.1777L328.065 61.2263C328.075 61.3332 328.104 61.4013 328.123 61.4693Z" fill="#AAAAAA"/>
</g>
<g style="mix-blend-mode:multiply">
<path d="M326.325 64.1715V63.4036L326.14 63.2967L324.837 62.5483V63.3064L326.15 64.0645L326.325 64.1715Z" fill="#AF9B7B"/>
</g>
<g style="mix-blend-mode:multiply">
<path d="M325.946 57.6689C326.111 57.4356 326.607 57.6689 326.782 58.0674C326.957 58.4659 327.103 58.8644 327.268 59.2726H326.967L328.066 60.5458C328.066 60.0793 328.153 59.6419 328.202 59.1754H327.842C327.687 58.7672 327.541 58.3881 327.375 57.9993C327.305 57.819 327.21 57.649 327.093 57.494C326.491 56.6387 325.625 56.4345 325.343 56.9205C325.187 57.1829 325.012 57.4259 324.837 57.6689V59.1754L324.915 59.0685L325.946 57.6689Z" fill="#AAAAAA"/>
</g>
<g style="mix-blend-mode:multiply">
<path d="M330.691 66.941V59.6127C330.676 59.2247 330.569 58.8458 330.377 58.5077C330.186 58.1696 329.917 57.882 329.592 57.6688L324.837 54.928V55.3945L329.592 58.1353C329.794 58.2685 329.961 58.4468 330.081 58.6561C330.201 58.8653 330.27 59.0997 330.283 59.3405V66.698C330.283 67.1451 329.972 67.3201 329.592 67.0965L324.837 64.3557V64.8222L329.592 67.5631C330.195 67.9227 330.691 67.6311 330.691 66.941Z" fill="#AAAAAA"/>
</g>
<g style="mix-blend-mode:multiply">
<path d="M316.611 101.542L306.838 71.1592L280.952 80.7521L259.715 93.0081L233.693 108.024L259.715 123.041H278.842L316.611 101.542Z" fill="#BBBDBF"/>
</g>
<path d="M280.797 56.1335L233.693 83.3184L259.724 98.3444L306.838 71.1596L280.797 56.1335Z" fill="url(#paint32_linear_2081_77947)"/>
<path d="M233.693 108.034V83.3181L259.724 98.3441V123.051L233.693 108.034Z" fill="url(#paint33_linear_2081_77947)"/>
<path d="M306.838 95.8656L259.725 123.05V98.344L306.838 71.1592V95.8656Z" fill="url(#paint34_linear_2081_77947)"/>
<g style="mix-blend-mode:multiply">
<path d="M253.996 71.6064L263.924 77.3311L270.167 73.7446L260.22 68.0103L253.996 71.6064Z" fill="#BBBDBF"/>
</g>
<g style="mix-blend-mode:multiply">
<path d="M270.157 80.9272L270.166 80.937L280.027 86.6227L286.26 83.0266L276.39 77.3408L270.157 80.9272Z" fill="#BBBDBF"/>
</g>
<g style="mix-blend-mode:multiply">
<path d="M290.695 61.8386L270.167 73.7448L263.924 77.3312L243.61 89.0429L249.834 92.6391L270.157 80.9273L276.39 77.3409L296.918 65.4348L290.695 61.8386Z" fill="#C6C6C6"/>
</g>
<g style="mix-blend-mode:multiply">
<path d="M246.859 90.919L293.982 63.7438L293.69 63.5688L246.567 90.7537L246.859 90.919Z" fill="#D0D2D3"/>
</g>
<g style="mix-blend-mode:multiply">
<path d="M243.592 95.1368L249.825 98.7329V92.6389L243.592 89.0525V95.1368Z" fill="#BBBDBF"/>
</g>
<g style="mix-blend-mode:multiply">
<path d="M286.261 89.1692L280.028 92.7653V86.6713L286.261 83.0752V89.1692Z" fill="#BBBDBF"/>
</g>
<g style="mix-blend-mode:multiply">
<path d="M262.028 113.526C262.028 113.419 262.106 113.302 262.135 113.195C262.333 112.613 262.591 112.053 262.904 111.524C263.059 111.271 263.225 111.018 263.409 110.775C263.684 110.397 263.993 110.046 264.333 109.726C264.601 109.465 264.894 109.23 265.208 109.026V108.802C265.202 108.783 265.204 108.762 265.213 108.744C265.222 108.726 265.238 108.712 265.257 108.705L265.607 108.501V108.744L265.763 108.666C266.191 108.464 266.66 108.365 267.134 108.375C267.562 108.389 267.972 108.554 268.291 108.841C268.51 109.043 268.679 109.292 268.787 109.57C268.787 109.57 268.787 109.57 268.787 109.629H268.738C268.678 109.578 268.607 109.543 268.531 109.526C268.455 109.51 268.376 109.511 268.301 109.531C267.997 109.619 267.733 109.808 267.552 110.066L267.396 110.299C267.396 110.299 267.338 110.299 267.318 110.299C267.2 110.26 267.073 110.252 266.951 110.276C266.828 110.3 266.714 110.354 266.618 110.435C266.397 110.588 266.211 110.787 266.074 111.018C266.074 111.077 266.015 111.077 265.986 111.067C265.865 111.018 265.729 111.018 265.607 111.067V114.605C265.605 114.791 265.586 114.976 265.549 115.159C265.505 115.319 265.439 115.473 265.354 115.616C265.236 115.801 265.084 115.962 264.907 116.092L264.683 116.218L264.44 116.277C264.236 116.325 264.129 116.208 264.051 116.043C264.002 115.899 263.979 115.748 263.983 115.596C263.983 115.596 263.983 115.538 264.032 115.509C264.14 115.437 264.244 115.359 264.343 115.275H264.391C264.387 115.343 264.387 115.412 264.391 115.48C264.391 115.596 264.44 115.693 264.528 115.722C264.577 115.731 264.627 115.73 264.676 115.718C264.724 115.706 264.77 115.685 264.81 115.654C264.911 115.592 264.996 115.506 265.058 115.405C265.121 115.304 265.159 115.19 265.169 115.071C265.169 114.935 265.169 114.809 265.169 114.683V111.32C265.169 111.32 265.169 111.32 265.169 111.252C265.011 111.393 264.873 111.557 264.761 111.738C264.761 111.786 264.712 111.815 264.673 111.796C264.583 111.756 264.484 111.74 264.385 111.749C264.287 111.757 264.192 111.79 264.109 111.845C263.826 112.002 263.591 112.234 263.429 112.515C263.429 112.515 263.38 112.583 263.351 112.564C263.279 112.532 263.201 112.516 263.122 112.516C263.044 112.516 262.966 112.532 262.894 112.564C262.629 112.67 262.402 112.853 262.242 113.089C262.157 113.207 262.079 113.33 262.009 113.458C262.009 113.458 262.009 113.506 261.951 113.506L262.028 113.526Z" fill="#AF9B7B"/>
<path d="M268.437 115.12L262.447 118.551C261.883 118.881 261.426 118.619 261.426 117.968V111.125C261.444 110.769 261.546 110.423 261.724 110.114C261.901 109.805 262.149 109.542 262.447 109.347L268.408 105.916C268.972 105.585 269.429 105.848 269.429 106.499V113.38C269.408 113.727 269.308 114.064 269.136 114.365C268.964 114.667 268.725 114.925 268.437 115.12ZM262.447 109.755C262.258 109.877 262.101 110.041 261.988 110.236C261.875 110.43 261.809 110.648 261.796 110.872V117.754C261.796 118.162 262.088 118.327 262.447 118.123L268.408 114.682C268.595 114.559 268.75 114.393 268.861 114.199C268.973 114.005 269.037 113.788 269.05 113.565V106.693C269.05 106.275 268.758 106.11 268.408 106.314L262.447 109.755Z" fill="#AF9B7B"/>
</g>
<g style="mix-blend-mode:multiply">
<path d="M275.72 109.929L274.99 109.696L274.796 109.648L275.768 108.374V108.724C276.07 108.54 276.381 108.404 276.682 108.18C276.821 108.065 276.922 107.91 276.972 107.737C277.022 107.564 277.02 107.38 276.964 107.208L275.992 105.838L275.914 105.721L276.439 105.06L276.537 105.186C276.848 105.624 277.13 106.1 277.509 106.499C277.888 106.897 277.645 107.927 277.003 108.646C276.895 108.766 276.77 108.871 276.634 108.958C276.352 109.132 276.07 109.288 275.768 109.453V109.91L275.72 109.929Z" fill="#AF9B7B"/>
<path d="M274.331 109.58V110.299L274.155 110.396C273.533 110.756 272.901 111.096 272.279 111.494C272.19 111.567 272.085 111.615 271.972 111.636C271.86 111.656 271.744 111.647 271.636 111.61C271.528 111.573 271.431 111.509 271.355 111.424C271.278 111.339 271.225 111.236 271.199 111.125C271.139 110.797 271.179 110.458 271.316 110.153C271.452 109.813 271.569 109.482 271.705 109.123H271.384C271.579 108.919 271.744 108.724 271.919 108.549L272.464 107.957C272.464 108.384 272.512 108.792 272.532 109.239H272.24C272.094 109.619 271.938 109.998 271.812 110.377C271.686 110.756 271.968 111.028 272.25 110.863L274.194 109.755L274.331 109.58Z" fill="#AF9B7B"/>
<path d="M275.748 104.049L276.079 103.651C276.03 104.137 275.991 104.623 275.953 105.079H274.922L275.204 104.71C275.068 104.5 274.919 104.298 274.756 104.108C274.581 103.933 274.124 104.244 273.979 104.632C273.648 105.459 273.337 106.285 273.006 107.101L272.919 107.325L272.384 107.276L272.471 107.043C272.782 106.246 273.113 105.449 273.444 104.652C273.774 103.855 274.523 103.145 275.087 103.291C275.19 103.317 275.282 103.375 275.35 103.456C275.457 103.641 275.593 103.845 275.748 104.049Z" fill="#AF9B7B"/>
<path d="M277.373 109.959L271.422 113.39C270.858 113.72 270.45 113.458 270.45 112.807V105.925C270.464 105.575 270.559 105.233 270.728 104.927C270.897 104.62 271.134 104.356 271.422 104.156L277.373 100.725C277.937 100.395 278.404 100.657 278.404 101.309V108.209C278.38 108.561 278.274 108.902 278.095 109.205C277.916 109.509 277.669 109.767 277.373 109.959ZM271.422 104.594C271.233 104.716 271.076 104.88 270.963 105.075C270.849 105.269 270.784 105.487 270.771 105.711V112.583C270.771 113.001 271.062 113.166 271.422 112.962L277.373 109.521C277.562 109.399 277.72 109.235 277.833 109.04C277.946 108.846 278.012 108.628 278.025 108.404V101.532C278.025 101.114 277.733 100.949 277.373 101.153L271.422 104.594Z" fill="#AF9B7B"/>
</g>
<g style="mix-blend-mode:multiply">
<path d="M284.492 103.728L283.947 104.049V99.4616L283.636 99.6366L284.22 97.8677L284.793 98.9757L284.492 99.1506V103.728Z" fill="#AF9B7B"/>
<path d="M282.215 100.492L281.904 100.667C282.098 100.074 282.293 99.4911 282.478 98.8982C282.672 99.2675 282.867 99.6271 283.061 100.006L282.76 100.181V104.73L282.215 105.051V100.492Z" fill="#AF9B7B"/>
<path d="M281.215 106.625V105.964L285.484 103.505V104.156L281.215 106.625Z" fill="#AF9B7B"/>
<path d="M286.329 104.788L280.368 108.209C279.804 108.54 279.347 108.268 279.347 107.616V100.745C279.366 100.391 279.468 100.046 279.646 99.7383C279.823 99.4309 280.071 99.1697 280.368 98.976L286.329 95.5353C286.893 95.2146 287.35 95.477 287.35 96.1282V103C287.334 103.357 287.233 103.706 287.056 104.017C286.878 104.328 286.629 104.592 286.329 104.788ZM280.368 99.4619C280.178 99.5848 280.02 99.7511 279.906 99.9472C279.793 100.143 279.728 100.363 279.717 100.589V107.461C279.717 107.879 280.008 108.044 280.368 107.84L286.329 104.399C286.519 104.276 286.678 104.11 286.791 103.914C286.904 103.718 286.969 103.498 286.981 103.272V96.4004C286.981 95.9921 286.689 95.8172 286.329 96.031L280.368 99.4619Z" fill="#AF9B7B"/>
</g>
<path d="M304.533 86.1466L294.75 91.7935V80.4997L304.533 74.8528V86.1466Z" fill="#BBBDBF"/>
<path d="M296.307 82.0157L295.646 82.4045V80.8883L296.307 80.4995V82.0157Z" fill="#404041"/>
<path d="M298.017 81.0343L297.346 81.4133V79.9068L298.017 79.5181V81.0343Z" fill="#404041"/>
<path d="M299.769 80.0136L298.417 80.8009V79.7026L299.769 78.925V80.0136Z" fill="#404041"/>
<path d="M296.052 84.018L295.634 84.2512V83.1627L296.052 82.9197V84.018Z" fill="#404041"/>
<path d="M296.723 83.6196L296.305 83.8626V82.774L296.723 82.531V83.6196Z" fill="#404041"/>
<path d="M297.347 83.2697L296.929 83.5029V82.4144L297.347 82.1714V83.2697Z" fill="#404041"/>
<path d="M298.435 82.6378L298.017 82.8808V81.7825L298.435 81.5396V82.6378Z" fill="#404041"/>
<path d="M299.106 82.2492L298.688 82.4921V81.3939L299.106 81.1509V82.2492Z" fill="#404041"/>
<path d="M299.73 81.8895L299.312 82.1325V81.0342L299.73 80.7913V81.8895Z" fill="#404041"/>
<path d="M300.273 81.5785L299.854 81.8215V80.7232L300.273 80.4802V81.5785Z" fill="#404041"/>
<path d="M296.052 85.5441L295.634 85.7871V84.6985L296.052 84.4556V85.5441Z" fill="#404041"/>
<path d="M296.723 85.1549L296.305 85.3979V84.2996L296.723 84.0566V85.1549Z" fill="#404041"/>
<path d="M297.764 84.5527L297.346 84.7957V83.7071L297.764 83.4641V84.5527Z" fill="#404041"/>
<path d="M298.435 84.1735L298.017 84.4067V83.3182L298.435 83.0752V84.1735Z" fill="#404041"/>
<path d="M299.106 83.7751L298.688 84.0181V82.9295L299.106 82.6865V83.7751Z" fill="#404041"/>
<path d="M299.73 83.4252L299.312 83.6585V82.5699L299.73 82.3269V83.4252Z" fill="#404041"/>
<path d="M300.944 82.7155L300.525 82.9585V81.8699L300.944 81.627V82.7155Z" fill="#404041"/>
<path d="M301.568 82.3559L301.149 82.5989V81.5103L301.568 81.2673V82.3559Z" fill="#404041"/>
<path d="M302.218 81.9867L301.8 82.2297V81.1314L302.218 80.8884V81.9867Z" fill="#404041"/>
<path d="M302.898 81.5978L302.48 81.8408V80.7425L302.898 80.4995V81.5978Z" fill="#404041"/>
<path d="M303.521 81.2382L303.103 81.4812V80.3829L303.521 80.1399V81.2382Z" fill="#404041"/>
<path d="M296.052 87.06L295.634 87.2932V86.2047L296.052 85.9617V87.06Z" fill="#404041"/>
<path d="M296.723 86.6616L296.305 86.9045V85.816L296.723 85.573V86.6616Z" fill="#404041"/>
<path d="M297.347 86.3117L296.929 86.5449V85.4564L297.347 85.2134V86.3117Z" fill="#404041"/>
<path d="M298.435 85.6799L298.017 85.9228V84.8343L298.435 84.5913V85.6799Z" fill="#404041"/>
<path d="M299.106 85.2914L298.688 85.5344V84.4361L299.106 84.1931V85.2914Z" fill="#404041"/>
<path d="M299.73 84.9315L299.312 85.1745V84.0762L299.73 83.8333V84.9315Z" fill="#404041"/>
<path d="M300.273 84.6207L299.854 84.8637V83.7654L300.273 83.5225V84.6207Z" fill="#404041"/>
<path d="M300.944 84.2318L300.525 84.4748V83.3765L300.944 83.1335V84.2318Z" fill="#404041"/>
<path d="M301.568 83.8722L301.149 84.1152V83.0169L301.568 82.7739V83.8722Z" fill="#404041"/>
<path d="M302.898 83.1046L302.48 83.3476V82.2493L302.898 82.0063V83.1046Z" fill="#404041"/>
<path d="M303.521 82.7448L303.103 82.9878V81.8992L303.521 81.6562V82.7448Z" fill="#404041"/>
<path d="M296.052 90.2189L295.634 90.4619V89.3636L296.052 89.1304V90.2189Z" fill="#404041"/>
<path d="M296.723 89.8302L296.305 90.0732V88.9749L296.723 88.7319V89.8302Z" fill="#404041"/>
<path d="M297.347 89.4706L296.929 89.7136V88.6153L297.347 88.3723V89.4706Z" fill="#404041"/>
<path d="M298.435 88.8388L298.017 89.0818V87.9932L298.435 87.7502V88.8388Z" fill="#404041"/>
<path d="M299.106 88.4499L298.688 88.6929V87.6043L299.106 87.3613V88.4499Z" fill="#404041"/>
<path d="M299.73 88.0905L299.312 88.3335V87.2449L299.73 87.002V88.0905Z" fill="#404041"/>
<path d="M300.273 87.7792L299.854 88.0222V86.9337L300.273 86.6907V87.7792Z" fill="#404041"/>
<path d="M300.944 87.3908L300.525 87.6337V86.5355L300.944 86.2925V87.3908Z" fill="#404041"/>
<path d="M296.052 88.5861L295.634 88.8291V87.7405L296.052 87.4976V88.5861Z" fill="#404041"/>
<path d="M296.723 88.1972L296.305 88.4401V87.3419L296.723 87.0989V88.1972Z" fill="#404041"/>
<path d="M297.764 87.5947L297.346 87.8376V86.7491L297.764 86.5061V87.5947Z" fill="#404041"/>
<path d="M298.435 87.2155L298.017 87.4584V86.3602L298.435 86.1172V87.2155Z" fill="#404041"/>
<path d="M299.106 86.8171L298.688 87.0601V85.9715L299.106 85.7285V86.8171Z" fill="#404041"/>
<path d="M299.73 86.4674L299.312 86.7007V85.6121L299.73 85.3691V86.4674Z" fill="#404041"/>
<path d="M300.944 85.7577L300.525 86.0007V84.9122L300.944 84.6692V85.7577Z" fill="#404041"/>
<path d="M301.568 85.4078L301.149 85.6411V84.5526L301.568 84.3096V85.4078Z" fill="#404041"/>
<path d="M302.218 85.0287L301.8 85.2717V84.1734L302.218 83.9304V85.0287Z" fill="#404041"/>
<path d="M303.521 84.2807L303.103 84.5236V83.4254L303.521 83.1824V84.2807Z" fill="#404041"/>
<path d="M300.566 79.5571L300.147 79.8001V78.7115L300.566 78.4685V79.5571Z" fill="#404041"/>
<path d="M303.316 77.9628L300.798 79.4207V78.3224L303.316 76.8743V77.9628Z" fill="#404041"/>
<g style="mix-blend-mode:multiply">
<path d="M257.097 123.935L254.404 122.39V119.833L259.314 122.672L257.097 123.935Z" fill="#BBBDBF"/>
</g>
<g style="mix-blend-mode:multiply">
<path d="M240.316 114.264L237.467 112.622V110.056L242.543 112.991L240.316 114.264Z" fill="#BBBDBF"/>
</g>
</g>
<defs>
<linearGradient id="paint0_linear_2081_77947" x1="214.13" y1="71.3425" x2="228.589" y2="89.5893" gradientUnits="userSpaceOnUse">
<stop offset="0.12" stop-color="#FCA4B5"/>
<stop offset="0.99" stop-color="#FFADB7"/>
</linearGradient>
<linearGradient id="paint1_linear_2081_77947" x1="200.392" y1="51.7742" x2="206.112" y2="58.9948" gradientUnits="userSpaceOnUse">
<stop offset="0.12" stop-color="#FCA4B5"/>
<stop offset="0.99" stop-color="#FFADB7"/>
</linearGradient>
<linearGradient id="paint2_linear_2081_77947" x1="184.786" y1="51.6352" x2="182.097" y2="51.8764" gradientUnits="userSpaceOnUse">
<stop offset="0.12" stop-color="#FEB9B8"/>
<stop offset="1" stop-color="#FFDEDE"/>
</linearGradient>
<linearGradient id="paint3_linear_2081_77947" x1="198.193" y1="47.2642" x2="199.811" y2="47.2085" gradientUnits="userSpaceOnUse">
<stop offset="0.12" stop-color="#FCA4B5"/>
<stop offset="0.99" stop-color="#FFADB7"/>
</linearGradient>
<linearGradient id="paint4_linear_2081_77947" x1="281.458" y1="133.732" x2="391.963" y2="133.732" gradientUnits="userSpaceOnUse">
<stop stop-color="#CDB081"/>
<stop offset="1" stop-color="#E4C595"/>
</linearGradient>
<linearGradient id="paint5_linear_2081_77947" x1="293.67" y1="138.417" x2="391.962" y2="138.417" gradientUnits="userSpaceOnUse">
<stop stop-color="#8F775E"/>
<stop offset="1" stop-color="#8A7660"/>
</linearGradient>
<linearGradient id="paint6_linear_2081_77947" x1="247.929" y1="114.43" x2="358.434" y2="114.43" gradientUnits="userSpaceOnUse">
<stop stop-color="#CDB081"/>
<stop offset="1" stop-color="#E4C595"/>
</linearGradient>
<linearGradient id="paint7_linear_2081_77947" x1="260.151" y1="119.114" x2="358.433" y2="119.114" gradientUnits="userSpaceOnUse">
<stop stop-color="#826F59"/>
<stop offset="1" stop-color="#8A7660"/>
</linearGradient>
<linearGradient id="paint8_linear_2081_77947" x1="214.585" y1="95.2146" x2="325.08" y2="95.2146" gradientUnits="userSpaceOnUse">
<stop stop-color="#CDB081"/>
<stop offset="1" stop-color="#E4C595"/>
</linearGradient>
<linearGradient id="paint9_linear_2081_77947" x1="226.797" y1="99.8993" x2="325.079" y2="99.8993" gradientUnits="userSpaceOnUse">
<stop stop-color="#826F59"/>
<stop offset="1" stop-color="#8A7660"/>
</linearGradient>
<linearGradient id="paint10_linear_2081_77947" x1="214.555" y1="129.398" x2="305.583" y2="129.398" gradientUnits="userSpaceOnUse">
<stop stop-color="#CDB081"/>
<stop offset="1" stop-color="#E4C595"/>
</linearGradient>
<linearGradient id="paint11_linear_2081_77947" x1="300.624" y1="80.1788" x2="391.962" y2="80.1788" gradientUnits="userSpaceOnUse">
<stop stop-color="#CDB081"/>
<stop offset="1" stop-color="#E4C595"/>
</linearGradient>
<linearGradient id="paint12_linear_2081_77947" x1="259.209" y1="103.826" x2="350.548" y2="103.826" gradientUnits="userSpaceOnUse">
<stop stop-color="#CDB081"/>
<stop offset="1" stop-color="#E4C595"/>
</linearGradient>
<linearGradient id="paint13_linear_2081_77947" x1="281.769" y1="121.583" x2="391.963" y2="121.583" gradientUnits="userSpaceOnUse">
<stop stop-color="#E4C595"/>
<stop offset="1" stop-color="#CDB081"/>
</linearGradient>
<linearGradient id="paint14_linear_2081_77947" x1="293.67" y1="126.268" x2="391.962" y2="126.268" gradientUnits="userSpaceOnUse">
<stop stop-color="#826F59"/>
<stop offset="1" stop-color="#8A7660"/>
</linearGradient>
<linearGradient id="paint15_linear_2081_77947" x1="264.984" y1="111.903" x2="375.178" y2="111.903" gradientUnits="userSpaceOnUse">
<stop stop-color="#E4C595"/>
<stop offset="1" stop-color="#CDB081"/>
</linearGradient>
<linearGradient id="paint16_linear_2081_77947" x1="276.896" y1="116.587" x2="375.178" y2="116.587" gradientUnits="userSpaceOnUse">
<stop stop-color="#826F59"/>
<stop offset="1" stop-color="#8A7660"/>
</linearGradient>
<linearGradient id="paint17_linear_2081_77947" x1="248.249" y1="102.31" x2="358.443" y2="102.31" gradientUnits="userSpaceOnUse">
<stop stop-color="#E4C595"/>
<stop offset="1" stop-color="#CDB081"/>
</linearGradient>
<linearGradient id="paint18_linear_2081_77947" x1="260.15" y1="106.994" x2="358.442" y2="106.994" gradientUnits="userSpaceOnUse">
<stop stop-color="#826F59"/>
<stop offset="1" stop-color="#8A7660"/>
</linearGradient>
<linearGradient id="paint19_linear_2081_77947" x1="231.466" y1="92.6292" x2="341.66" y2="92.6292" gradientUnits="userSpaceOnUse">
<stop stop-color="#E4C595"/>
<stop offset="1" stop-color="#CDB081"/>
</linearGradient>
<linearGradient id="paint20_linear_2081_77947" x1="243.377" y1="97.3141" x2="341.659" y2="97.3141" gradientUnits="userSpaceOnUse">
<stop stop-color="#826F59"/>
<stop offset="1" stop-color="#8A7660"/>
</linearGradient>
<linearGradient id="paint21_linear_2081_77947" x1="214.555" y1="82.8516" x2="324.749" y2="82.8516" gradientUnits="userSpaceOnUse">
<stop stop-color="#E4C595"/>
<stop offset="1" stop-color="#CDB081"/>
</linearGradient>
<linearGradient id="paint22_linear_2081_77947" x1="226.457" y1="87.5365" x2="324.748" y2="87.5365" gradientUnits="userSpaceOnUse">
<stop stop-color="#826F59"/>
<stop offset="1" stop-color="#8A7660"/>
</linearGradient>
<linearGradient id="paint23_linear_2081_77947" x1="280.572" y1="79.1683" x2="307.44" y2="58.2783" gradientUnits="userSpaceOnUse">
<stop stop-color="#B6956B"/>
<stop offset="1" stop-color="#C3A277"/>
</linearGradient>
<linearGradient id="paint24_linear_2081_77947" x1="299.748" y1="23.2431" x2="321.36" y2="54.3841" gradientUnits="userSpaceOnUse">
<stop stop-color="#CDB081"/>
<stop offset="1" stop-color="#E4C595"/>
</linearGradient>
<linearGradient id="paint25_linear_2081_77947" x1="340.863" y1="79.9945" x2="315.153" y2="57.7052" gradientUnits="userSpaceOnUse">
<stop offset="0.13" stop-color="#A78258"/>
<stop offset="0.51" stop-color="#A27D53"/>
<stop offset="1" stop-color="#926F45"/>
</linearGradient>
<linearGradient id="paint26_linear_2081_77947" x1="314.607" y1="98.8109" x2="341.475" y2="77.9208" gradientUnits="userSpaceOnUse">
<stop stop-color="#B6956B"/>
<stop offset="1" stop-color="#C3A277"/>
</linearGradient>
<linearGradient id="paint27_linear_2081_77947" x1="333.783" y1="42.8762" x2="355.395" y2="74.0172" gradientUnits="userSpaceOnUse">
<stop stop-color="#CDB081"/>
<stop offset="1" stop-color="#E4C595"/>
</linearGradient>
<linearGradient id="paint28_linear_2081_77947" x1="374.897" y1="99.637" x2="349.188" y2="77.338" gradientUnits="userSpaceOnUse">
<stop offset="0.05" stop-color="#A78258"/>
<stop offset="1" stop-color="#9D794F"/>
</linearGradient>
<linearGradient id="paint29_linear_2081_77947" x1="314.607" y1="59.5253" x2="341.475" y2="38.645" gradientUnits="userSpaceOnUse">
<stop stop-color="#B6956B"/>
<stop offset="1" stop-color="#C3A277"/>
</linearGradient>
<linearGradient id="paint30_linear_2081_77947" x1="333.783" y1="3.60057" x2="355.395" y2="34.7416" gradientUnits="userSpaceOnUse">
<stop stop-color="#CDB081"/>
<stop offset="1" stop-color="#E4C595"/>
</linearGradient>
<linearGradient id="paint31_linear_2081_77947" x1="374.897" y1="60.3514" x2="349.188" y2="38.0621" gradientUnits="userSpaceOnUse">
<stop stop-color="#A47F55"/>
<stop offset="0.73" stop-color="#98744A"/>
<stop offset="1" stop-color="#926F45"/>
</linearGradient>
<linearGradient id="paint32_linear_2081_77947" x1="285.109" y1="51.286" x2="275.011" y2="91.2807" gradientUnits="userSpaceOnUse">
<stop stop-color="#CDB081"/>
<stop offset="1" stop-color="#E4C595"/>
</linearGradient>
<linearGradient id="paint33_linear_2081_77947" x1="237.303" y1="109.408" x2="247.509" y2="89.8289" gradientUnits="userSpaceOnUse">
<stop stop-color="#B6956B"/>
<stop offset="1" stop-color="#C3A277"/>
</linearGradient>
<linearGradient id="paint34_linear_2081_77947" x1="314.69" y1="105.694" x2="273.742" y2="76.6152" gradientUnits="userSpaceOnUse">
<stop offset="0.13" stop-color="#A78258"/>
<stop offset="0.51" stop-color="#A27D53"/>
<stop offset="1" stop-color="#926F45"/>
</linearGradient>
<clipPath id="clip0_2081_77947">
<rect width="44" height="123" fill="white" transform="translate(185 34)"/>
</clipPath>
<clipPath id="clip1_2081_77947">
<rect width="214.446" height="167.638" fill="white" transform="translate(214.553 0.0627441)"/>
</clipPath>
</defs>
</svg>
