<svg width="35" height="17" viewBox="0 0 35 17" fill="none" xmlns="http://www.w3.org/2000/svg">
    <path d="M31.1133 8.5H34.2781L33.9532 7.4375H31.1133V8.5Z" fill="#5F45D3"/>
    <path d="M24.6153 0H1.87398C1.57482 0 1.33252 0.237735 1.33252 0.53125V11.1562C1.33252 11.4498 1.57482 11.6875 1.87398 11.6875H24.6153C24.9145 11.6875 25.1568 11.4498 25.1568 11.1562V0.53125C25.1568 0.237735 24.9145 0 24.6153 0ZM20.8249 6.90608C20.8249 7.1996 20.5826 7.43733 20.2835 7.43733H6.20549C5.90633 7.43733 5.66403 7.1996 5.66403 6.90608V4.78108C5.66403 4.48757 5.90633 4.24983 6.20549 4.24983H20.2835C20.5826 4.24983 20.8249 4.48757 20.8249 4.78108V6.90608Z" fill="#5F45D3"/>
    <path d="M6.74756 5.3125H19.7426V6.375H6.74756V5.3125Z" fill="#5F45D3"/>
    <path d="M0.25 13.281C0.25 13.5745 0.492304 13.8123 0.79146 13.8123H3.68558C3.82907 13.4165 4.04837 13.0565 4.32993 12.7498H0.79146C0.492304 12.7498 0.25 12.9875 0.25 13.281Z" fill="#5F45D3"/>
    <path d="M14.328 14.875H25.1572V12.75H13.498C14.0138 13.3145 14.328 14.0595 14.328 14.875Z" fill="#5F45D3"/>
    <path d="M28.9187 1.716C27.9035 1.21929 26.9004 1.07319 26.8585 1.06789C26.7028 1.04664 26.5458 1.09179 26.428 1.19273C26.3089 1.29367 26.2412 1.43976 26.2412 1.59383V3.71883H30.9274C30.6215 2.89804 29.9419 2.21804 28.9213 1.71603L28.9187 1.716Z" fill="#5F45D3"/>
    <path d="M33.8204 11.6875C33.5213 11.6875 33.279 11.4498 33.279 11.1562C33.279 10.8627 33.5213 10.625 33.8204 10.625H34.8926C34.8804 10.5108 34.8574 10.3965 34.8249 10.285L34.6029 9.56249H30.5716C30.2725 9.56249 30.0302 9.32475 30.0302 9.03124V6.90624C30.0302 6.61272 30.2725 6.37499 30.5716 6.37499H33.6282L33.547 6.10671C33.3047 5.31383 32.575 4.78125 31.7317 4.78125H26.2412V14.3438C26.2412 14.6373 26.4835 14.875 26.7827 14.875H27.3241C27.3241 13.1139 28.7779 11.6875 30.5729 11.6875C32.3665 11.6875 33.8217 13.1139 33.8217 14.875H34.3631C34.6623 14.875 34.9046 14.6373 34.9046 14.3438V11.6875L33.8204 11.6875Z" fill="#5F45D3"/>
    <path d="M30.5716 12.75C29.375 12.75 28.4058 13.7009 28.4058 14.875C28.4058 16.0491 29.375 17 30.5716 17C31.7682 17 32.7374 16.0491 32.7374 14.875C32.7374 13.7009 31.7682 12.75 30.5716 12.75ZM30.5716 15.4062C30.2724 15.4062 30.0301 15.1685 30.0301 14.875C30.0301 14.5815 30.2724 14.3438 30.5716 14.3438C30.8708 14.3438 31.1131 14.5815 31.1131 14.875C31.1131 15.1685 30.8708 15.4062 30.5716 15.4062Z" fill="#5F45D3"/>
    <path d="M11.0794 12.75C9.8828 12.75 8.91357 13.7009 8.91357 14.875C8.91357 16.0491 9.8828 17 11.0794 17C12.2747 17 13.2453 16.0491 13.2453 14.875C13.2453 13.7009 12.276 12.75 11.0794 12.75ZM11.0794 15.4062C10.7803 15.4062 10.538 15.1685 10.538 14.875C10.538 14.5815 10.7803 14.3438 11.0794 14.3438C11.3786 14.3438 11.6209 14.5815 11.6209 14.875C11.6209 15.1685 11.3786 15.4062 11.0794 15.4062Z" fill="#5F45D3"/>
    <path d="M6.74738 12.75C5.55077 12.75 4.58154 13.7009 4.58154 14.875C4.58154 16.0491 5.55077 17 6.74738 17C7.944 17 8.91323 16.0491 8.91323 14.875C8.91323 13.7009 7.944 12.75 6.74738 12.75ZM6.74738 15.4062C6.44823 15.4062 6.20592 15.1685 6.20592 14.875C6.20592 14.5815 6.44823 14.3438 6.74738 14.3438C7.04654 14.3438 7.28884 14.5815 7.28884 14.875C7.28884 15.1685 7.04654 15.4062 6.74738 15.4062Z" fill="#5F45D3"/>
</svg>
