<svg width="30" height="15" viewBox="0 0 30 15" fill="none" xmlns="http://www.w3.org/2000/svg">
    <g clip-path="url(#clip0_2291_80745)">
        <path d="M5.25 14.625C6.28553 14.625 7.125 13.7855 7.125 12.75C7.125 11.7145 6.28553 10.875 5.25 10.875C4.21447 10.875 3.375 11.7145 3.375 12.75C3.375 13.7855 4.21447 14.625 5.25 14.625Z" fill="#5F45D3"/>
        <path d="M24.75 14.625C25.7855 14.625 26.625 13.7855 26.625 12.75C26.625 11.7145 25.7855 10.875 24.75 10.875C23.7145 10.875 22.875 11.7145 22.875 12.75C22.875 13.7855 23.7145 14.625 24.75 14.625Z" fill="#5F45D3"/>
        <path d="M19.5 0.375H1.5C0.8775 0.375 0.375 0.8775 0.375 1.5V7.875H20.625V4.5V1.5C20.625 0.8775 20.1225 0.375 19.5 0.375Z" fill="#5F45D3"/>
        <path d="M0.375 11.25C0.375 11.8725 0.8775 12.375 1.5 12.375H2.6625C2.85 11.1075 3.93 10.125 5.25 10.125C6.57 10.125 7.65 11.1075 7.8375 12.375H12H20.625V8.625H0.375V11.25Z" fill="#5F45D3"/>
        <path d="M24.75 4.875H21.375V8.25V12.375H22.1625C22.35 11.1075 23.43 10.125 24.75 10.125C26.07 10.125 27.15 11.1075 27.3375 12.375H29.625V8.4075L26.0925 4.875H24.75Z" fill="#5F45D3"/>
    </g>
    <defs>
        <clipPath id="clip0_2291_80745">
            <rect width="30" height="15" fill="white"/>
        </clipPath>
    </defs>
</svg>
