<svg width="26" height="16" viewBox="0 0 26 16" fill="none" xmlns="http://www.w3.org/2000/svg">
    <g clip-path="url(#clip0_2291_80731)">
        <path d="M18.1641 5.30493V7.10824H20.4139L19.6092 5.30493H18.1641Z" fill="#5F45D3"/>
        <path d="M21.9836 12.3601C21.0425 12.3601 20.2769 13.14 20.2769 14.0989C20.2769 15.0575 21.0425 15.8371 21.9836 15.8371C22.9248 15.8371 23.6904 15.0575 23.6904 14.0989C23.6904 13.14 22.9248 12.3601 21.9836 12.3601Z" fill="#5F45D3"/>
        <path d="M14.4707 0.0437012H1.20499C0.65222 0.0437012 0.202637 0.501632 0.202637 1.06467V1.72701H5.54861C5.77314 1.72701 5.95486 1.91239 5.95486 2.1408C5.95486 2.36949 5.77314 2.5546 5.54861 2.5546H0.202637V8.54301H15.473V7.52205V1.06467C15.4728 0.501632 15.0234 0.0437012 14.4707 0.0437012ZM9.89197 5.30494H2.37905C2.15453 5.30494 1.9728 5.11984 1.9728 4.89115C1.9728 4.66274 2.15453 4.47736 2.37905 4.47736H9.89197C10.1165 4.47736 10.2982 4.66274 10.2982 4.89115C10.2982 5.12011 10.1165 5.30494 9.89197 5.30494Z" fill="#5F45D3"/>
        <path d="M0.202789 9.43485V13.6848H1.30318C1.49954 12.4001 2.58991 11.4128 3.90535 11.4128C5.22052 11.4128 6.31089 12.4001 6.50698 13.6848H15.4729V9.37085H0.196289C0.199539 9.39182 0.202789 9.41278 0.202789 9.43485Z" fill="#5F45D3"/>
        <path d="M3.9049 12.2405C2.89902 12.2405 2.08057 13.0739 2.08057 14.0987C2.08057 15.123 2.89902 15.9563 3.9049 15.9563C4.9105 15.9563 5.72869 15.123 5.72869 14.0987C5.72896 13.0741 4.91077 12.2405 3.9049 12.2405Z" fill="#5F45D3"/>
        <path d="M25.3109 8.72922L23.6829 8.1764C23.1453 7.99378 22.5703 7.45667 22.3453 6.92674L21.1116 4.02081C20.9984 3.75405 20.6352 3.51074 20.3498 3.51074H16.2856V7.52205V8.95681V13.6848H19.5004C19.6957 12.4663 20.7333 11.5323 21.9837 11.5323C23.2341 11.5323 24.272 12.4663 24.467 13.6848H25.3973C25.6213 13.6848 25.8035 13.4992 25.8035 13.271V9.42578C25.8038 9.14881 25.5687 8.81667 25.3109 8.72922ZM21.0504 7.93612C21.0488 7.93584 21.0469 7.93612 21.045 7.93612H17.7579C17.5334 7.93612 17.3516 7.75074 17.3516 7.52233V4.89116C17.3516 4.66274 17.5334 4.47736 17.7579 4.47736H19.8709C20.0302 4.47736 20.1748 4.57226 20.2409 4.72012L21.3895 7.29419C21.432 7.35929 21.4567 7.43791 21.4567 7.52205C21.4567 7.75074 21.2747 7.93612 21.0504 7.93612Z" fill="#5F45D3"/>
    </g>
    <defs>
        <clipPath id="clip0_2291_80731">
            <rect width="26" height="16" fill="white"/>
        </clipPath>
    </defs>
</svg>
