<svg width="32" height="16" viewBox="0 0 32 16" fill="none" xmlns="http://www.w3.org/2000/svg">
    <g clip-path="url(#clip0_2291_80758)">
        <path d="M27.338 5.60188C27.1102 5.0903 26.5923 4.75928 26.0156 4.75928H25.6895V7.53706H28.1977L27.338 5.6007V5.60188Z" fill="#5F45D3"/>
        <path d="M19.4537 12.1665H23.2903C23.5553 12.1665 23.7699 12.4223 23.7699 12.6295V14.4813C23.7699 14.7371 23.5553 14.9443 23.2903 14.9443H19.4537C19.1887 14.9443 18.9741 14.6885 18.9741 14.4813V12.6295C18.9741 12.3737 19.1887 12.1665 19.4537 12.1665Z" fill="#5F45D3"/>
        <path d="M2.66846 1.98169H19.9333V9.3891H2.66846V1.98169Z" fill="#5F45D3"/>
        <path d="M21.8515 10.7778V0.592602C21.8515 0.336815 21.6369 0.129639 21.3719 0.129639H1.22958C0.964612 0.129639 0.75 0.336815 0.75 0.592602V10.7778C0.75 11.0336 0.964612 11.2408 1.22958 11.2408H21.3719C21.6369 11.2408 21.8515 11.0336 21.8515 10.7778ZM20.8923 9.85186C20.8923 10.1076 20.6777 10.3148 20.4127 10.3148H2.18874C1.92377 10.3148 1.70916 10.1076 1.70916 9.85186V1.51853C1.70916 1.26274 1.92377 1.05556 2.18874 1.05556H20.4127C20.6777 1.05556 20.8923 1.26274 20.8923 1.51853V9.85186Z" fill="#5F45D3"/>
        <path d="M30.484 10.7777H31.4431V10.0555C31.4431 9.45595 31.0475 8.927 30.46 8.73835L29.6039 8.46288H25.2099C24.9449 8.46288 24.7303 8.25571 24.7303 7.99992V4.75903H22.812V11.2405H26.6486C28.2361 11.2405 29.5261 12.4859 29.5261 14.0183C29.5261 14.1711 29.5129 14.3204 29.4878 14.4662L30.6495 14.4627C31.2298 14.4812 31.4444 14.2741 31.4444 14.0183V11.7035H30.4853C30.2203 11.7035 30.0057 11.4963 30.0057 11.2405C30.0057 10.9847 30.2203 10.7775 30.4853 10.7775L30.484 10.7777Z" fill="#5F45D3"/>
        <path d="M2.18856 12.1665C1.9236 12.1665 1.70898 12.3737 1.70898 12.6295V14.0184C1.70898 14.2741 1.9236 14.4813 2.18856 14.4813H6.54544C6.51907 14.3309 6.50468 14.1758 6.50468 14.0184C6.50468 13.3077 6.78284 12.6584 7.23963 12.1665H2.18856Z" fill="#5F45D3"/>
        <path d="M12.2599 14.0184C12.2599 14.1758 12.2456 14.3309 12.2192 14.4813H18.015V12.1665H11.5249C11.9817 12.6584 12.2599 13.3077 12.2599 14.0184Z" fill="#5F45D3"/>
        <path d="M9.38218 12.1665C8.32232 12.1665 7.46387 12.9952 7.46387 14.0184C7.46387 15.0415 8.32232 15.8702 9.38218 15.8702C10.442 15.8702 11.3005 15.0415 11.3005 14.0184C11.3005 12.9952 10.442 12.1665 9.38218 12.1665ZM9.38218 14.4813C9.11722 14.4813 8.9026 14.2741 8.9026 14.0184C8.9026 13.7626 9.11722 13.5554 9.38218 13.5554C9.64715 13.5554 9.86176 13.7626 9.86176 14.0184C9.86176 14.2741 9.64715 14.4813 9.38218 14.4813Z" fill="#5F45D3"/>
        <path d="M26.6473 12.1665C25.5875 12.1665 24.729 12.9952 24.729 14.0184C24.729 15.0415 25.5875 15.8702 26.6473 15.8702C27.7072 15.8702 28.5656 15.0415 28.5656 14.0184C28.5656 12.9952 27.7072 12.1665 26.6473 12.1665ZM26.6473 14.4813C26.3824 14.4813 26.1677 14.2741 26.1677 14.0184C26.1677 13.7626 26.3824 13.5554 26.6473 13.5554C26.9123 13.5554 27.1269 13.7626 27.1269 14.0184C27.1269 14.2741 26.9123 14.4813 26.6473 14.4813Z" fill="#5F45D3"/>
    </g>
    <defs>
        <clipPath id="clip0_2291_80758">
            <rect width="31" height="16" fill="white" transform="translate(0.75)"/>
        </clipPath>
    </defs>
</svg>
