<svg width="25" height="24" viewBox="0 0 25 24" fill="none" xmlns="http://www.w3.org/2000/svg">
    <g clip-path="url(#clip0_2291_80646)">
        <path fill-rule="evenodd" clip-rule="evenodd" d="M3.11842 9.33325H23.0132C23.9605 9.33325 24.75 10.1357 24.75 11.0987V14.2283C24.75 14.8703 24.4342 15.432 23.9605 15.753C24.0395 13.5061 22.3026 11.6604 20.1711 11.6604C17.8026 11.6604 16.0658 13.7468 16.3816 16.074H8.96053C9.19737 13.7468 7.46053 11.6604 5.17105 11.6604C3.19737 11.6604 1.53947 13.2654 1.38158 15.2715C0.986842 14.79 0.75 14.2283 0.75 13.6666V11.7407C0.75 10.3765 1.85526 9.33325 3.11842 9.33325Z" fill="#5F45D3"/>
        <path fill-rule="evenodd" clip-rule="evenodd" d="M9.98707 5H19.066L21.8292 9.57407H20.4871L18.4344 6.2037H10.5397L7.61865 9.57407H6.11865L9.98707 5Z" fill="#5F45D3"/>
        <path d="M5.171 18C6.52265 18 7.61837 16.8862 7.61837 15.5123C7.61837 14.1384 6.52265 13.0247 5.171 13.0247C3.81936 13.0247 2.72363 14.1384 2.72363 15.5123C2.72363 16.8862 3.81936 18 5.171 18Z" fill="#5F45D3"/>
        <path d="M20.171 18C21.5226 18 22.6184 16.8862 22.6184 15.5123C22.6184 14.1384 21.5226 13.0247 20.171 13.0247C18.8194 13.0247 17.7236 14.1384 17.7236 15.5123C17.7236 16.8862 18.8194 18 20.171 18Z" fill="#5F45D3"/>
    </g>
    <defs>
        <clipPath id="clip0_2291_80646">
            <rect width="24" height="24" fill="white" transform="translate(0.75)"/>
        </clipPath>
    </defs>
</svg>
