<svg width="29" height="15" viewBox="0 0 29 15" fill="none" xmlns="http://www.w3.org/2000/svg">
    <g clip-path="url(#clip0_2291_80696)">
        <path d="M22.625 7.49986H25.8265L25.1046 5.58798C24.8498 4.91414 24.1914 4.46167 23.4662 4.46167H22.6262V7.5L22.625 7.49986Z" fill="#5F45D3"/>
        <path d="M0.75 0.555504V10.1041C0.75 10.3439 0.945781 10.5381 1.1875 10.5381H18.6874C18.9291 10.5381 19.1249 10.3439 19.1249 10.1041V0.121338H1.18764C0.945921 0.121338 0.75 0.315704 0.75 0.555504Z" fill="#5F45D3"/>
        <path d="M2.0625 11.8403V12.7083C2.0625 12.9481 2.25828 13.1424 2.5 13.1424H3.81249C3.81249 12.4761 4.06624 11.8674 4.48295 11.4062H2.5C2.25828 11.4062 2.0625 11.6005 2.0625 11.8403Z" fill="#5F45D3"/>
        <path d="M12.5624 13.1421H19.125V11.406H11.8921C12.3088 11.8672 12.5624 12.4759 12.5624 13.1421Z" fill="#5F45D3"/>
        <path d="M27.8749 10.9721C27.6331 10.9721 27.4374 10.7779 27.4374 10.5381C27.4374 10.2983 27.6331 10.104 27.8749 10.104H28.7477C28.7192 9.38465 28.2467 8.75637 27.5533 8.52742L27.071 8.36792H22.1875C21.9458 8.36792 21.75 8.17369 21.75 7.93389V4.46167H20.4375C20.1958 4.46167 20 4.6559 20 4.8957V12.7082C20 12.948 20.1958 13.1422 20.4375 13.1422H22.1875C22.1875 11.7056 23.3644 10.5381 24.8125 10.5381C26.2606 10.5381 27.4375 11.7056 27.4375 13.1422H28.3125C28.5542 13.1422 28.75 12.948 28.75 12.7082V10.9721L27.8749 10.9721Z" fill="#5F45D3"/>
        <path d="M9.93749 11.406C8.97063 11.406 8.1875 12.1829 8.1875 13.1421C8.1875 14.1013 8.97063 14.8782 9.93749 14.8782C10.9033 14.8782 11.6875 14.1013 11.6875 13.1421C11.6875 12.1829 10.9044 11.406 9.93749 11.406ZM9.93749 13.5761C9.69578 13.5761 9.49999 13.3819 9.49999 13.1421C9.49999 12.9023 9.69578 12.7081 9.93749 12.7081C10.1792 12.7081 10.375 12.9023 10.375 13.1421C10.375 13.3819 10.1792 13.5761 9.93749 13.5761Z" fill="#5F45D3"/>
        <path d="M6.43749 11.406C5.47063 11.406 4.6875 12.1829 4.6875 13.1421C4.6875 14.1013 5.47063 14.8782 6.43749 14.8782C7.40436 14.8782 8.18749 14.1013 8.18749 13.1421C8.18749 12.1829 7.40436 11.406 6.43749 11.406ZM6.43749 13.5761C6.19578 13.5761 5.99999 13.3819 5.99999 13.1421C5.99999 12.9023 6.19578 12.7081 6.43749 12.7081C6.67921 12.7081 6.87499 12.9023 6.87499 13.1421C6.87499 13.3819 6.67921 13.5761 6.43749 13.5761Z" fill="#5F45D3"/>
        <path d="M24.8125 11.406C23.8456 11.406 23.0625 12.1829 23.0625 13.1421C23.0625 14.1013 23.8456 14.8782 24.8125 14.8782C25.7794 14.8782 26.5625 14.1013 26.5625 13.1421C26.5625 12.1829 25.7794 11.406 24.8125 11.406ZM24.8125 13.5761C24.5708 13.5761 24.375 13.3819 24.375 13.1421C24.375 12.9023 24.5708 12.7081 24.8125 12.7081C25.0542 12.7081 25.25 12.9023 25.25 13.1421C25.25 13.3819 25.0542 13.5761 24.8125 13.5761Z" fill="#5F45D3"/>
    </g>
    <defs>
        <clipPath id="clip0_2291_80696">
            <rect width="28" height="15" fill="white" transform="translate(0.75)"/>
        </clipPath>
    </defs>
</svg>
