<svg width="25" height="24" viewBox="0 0 25 24" fill="none" xmlns="http://www.w3.org/2000/svg">
    <g clip-path="url(#clip0_2291_80673)">
        <path d="M6.56636 5.08984H2.10517C1.42799 5.0918 0.878437 5.62889 0.877441 6.29297V10.8877H6.56621L6.56636 5.08984Z" fill="#5F45D3"/>
        <path d="M6.14964 15.8847C5.31587 15.874 4.55787 16.3573 4.23176 17.1083C3.90464 17.8593 4.07318 18.7294 4.65862 19.3105C5.24407 19.8915 6.13069 20.0693 6.90165 19.7597C7.67358 19.4491 8.17725 18.7138 8.17725 17.8974C8.18423 16.7939 7.27664 15.8935 6.14964 15.8847Z" fill="#5F45D3"/>
        <path d="M7.3833 5.08984H14.1643V10.8896H7.3833V5.08984Z" fill="#5F45D3"/>
        <path d="M18.8909 15.8848C18.0581 15.8799 17.3052 16.3672 16.983 17.1182C16.6609 17.8702 16.8334 18.7383 17.4198 19.3165C18.0073 19.8946 18.8919 20.0684 19.6618 19.7579C20.4308 19.4473 20.9334 18.7129 20.9334 17.8975C20.9364 17.3653 20.723 16.8526 20.339 16.4756C19.9561 16.0977 19.4345 15.8848 18.8909 15.8848Z" fill="#5F45D3"/>
        <path d="M24.0837 10.7501L21.7859 7.82034C20.4375 6.10452 18.3541 5.09659 16.1428 5.08984H14.9839V10.8876H24.1754C24.1494 10.8397 24.1216 10.7872 24.0837 10.7501Z" fill="#5F45D3"/>
        <path d="M24.6221 12.5273V12.2773C24.6211 12.0752 24.5962 11.874 24.5483 11.6777H0.877441V12.5156H2.97384V13.3154H0.877441V16.2949C0.877441 16.96 1.42696 17.499 2.10517 17.5H3.33389C3.5194 16.1172 4.72319 15.083 6.14828 15.083C7.57336 15.083 8.7773 16.1172 8.96368 17.5H16.0687C16.2592 16.1192 17.462 15.0899 18.8851 15.0899C20.3073 15.0899 21.5111 16.1192 21.7005 17.5H23.389C24.0662 17.499 24.6148 16.961 24.6168 16.2979V13.3271H23.3402V12.5273L24.6221 12.5273ZM14.5748 15.8848H10.9245V15.085H14.5758L14.5748 15.8848Z" fill="#5F45D3"/>
    </g>
    <defs>
        <clipPath id="clip0_2291_80673">
            <rect width="24" height="24" fill="white" transform="translate(0.75)"/>
        </clipPath>
    </defs>
</svg>
