<svg width="29" height="28" viewBox="0 0 29 28" fill="none" xmlns="http://www.w3.org/2000/svg">
    <g clip-path="url(#clip0_2291_80686)">
        <path d="M26.9377 12.629L22.7668 12.1623L20.7835 8.69147C20.2585 7.75814 19.2377 7.1748 18.1585 7.1748H14.3668C13.9877 7.1748 13.696 7.46647 13.696 7.84564V12.1331H1.06683C0.687663 12.1331 0.395996 12.4248 0.395996 12.804V17.4123C0.395996 17.7915 0.687663 18.0831 1.06683 18.0831H2.5835C2.70016 19.629 3.9835 20.8248 5.5585 20.8248C7.1335 20.8248 8.41683 19.5998 8.5335 18.0831H19.1793C19.296 19.629 20.5793 20.8248 22.1543 20.8248C23.7293 20.8248 25.0127 19.5998 25.1293 18.0831H26.7627C27.4918 18.0831 28.1043 17.4998 28.1043 16.7415V13.9706C28.1043 13.2998 27.6085 12.7165 26.9377 12.629ZM5.5585 19.4248C4.6835 19.4248 3.9835 18.7248 3.9835 17.8498C3.9835 16.9748 4.6835 16.2748 5.5585 16.2748C6.4335 16.2748 7.1335 16.9748 7.1335 17.8498C7.1335 18.6956 6.4335 19.4248 5.5585 19.4248ZM20.3168 12.0748H16.0002C15.9127 12.0748 15.8543 12.0165 15.8543 11.929V9.15814C15.8543 9.07064 15.9127 9.0123 16.0002 9.0123H18.1585C18.5668 9.0123 18.946 9.24564 19.1502 9.59564L20.4335 11.8415C20.4918 11.9581 20.4335 12.0748 20.3168 12.0748ZM22.1543 19.4248C21.2793 19.4248 20.5793 18.7248 20.5793 17.8498C20.5793 16.9748 21.2793 16.2748 22.1543 16.2748C23.0293 16.2748 23.7293 16.9748 23.7293 17.8498C23.7293 18.6956 23.0293 19.4248 22.1543 19.4248Z" fill="#5F45D3"/>
    </g>
    <defs>
        <clipPath id="clip0_2291_80686">
            <rect width="28" height="28" fill="white" transform="translate(0.25)"/>
        </clipPath>
    </defs>
</svg>
