<svg width="29" height="15" viewBox="0 0 29 15" fill="none" xmlns="http://www.w3.org/2000/svg">
    <g clip-path="url(#clip0_2291_80713)">
        <path d="M22.125 7.49986H25.3265L24.6046 5.58798C24.3498 4.91414 23.6914 4.46167 22.9662 4.46167H22.1262V7.5L22.125 7.49986Z" fill="#5F45D3"/>
        <path d="M0.25 0.555504V10.1041C0.25 10.3439 0.445781 10.5381 0.687498 10.5381H18.1874C18.4291 10.5381 18.6249 10.3439 18.6249 10.1041V0.121338H0.687638C0.445921 0.121338 0.25 0.315704 0.25 0.555504ZM10.3126 5.32995C10.3126 5.09015 10.5084 4.89592 10.7501 4.89592V4.02787C10.5084 4.02787 10.3126 3.83364 10.3126 3.59384C10.3126 3.35404 10.5084 3.15981 10.7501 3.15981V1.85773C10.7501 1.61793 10.9459 1.4237 11.1876 1.4237H15.5626C15.8043 1.4237 16.0001 1.61793 16.0001 1.85773V8.80217C16.0001 9.04197 15.8043 9.2362 15.5626 9.2362H11.1876C10.9459 9.2362 10.7501 9.04197 10.7501 8.80217V7.50009C10.5084 7.50009 10.3126 7.30586 10.3126 7.06606C10.3126 6.82626 10.5084 6.63203 10.7501 6.63203V5.76398C10.5084 5.76398 10.3126 5.56975 10.3126 5.32995Z" fill="#5F45D3"/>
        <path d="M15.125 2.2915H11.625V3.15956C11.8667 3.15956 12.0625 3.35379 12.0625 3.59359C12.0625 3.83339 11.8667 4.02761 11.625 4.02761V4.89567C11.8667 4.89567 12.0625 5.0899 12.0625 5.3297C12.0625 5.5695 11.8667 5.76373 11.625 5.76373V6.63178C11.8667 6.63178 12.0625 6.82601 12.0625 7.06581C12.0625 7.30561 11.8667 7.49984 11.625 7.49984V8.36789H15.125V2.2915Z" fill="#5F45D3"/>
        <path d="M22.125 1.75136V0.989638C22.125 0.510026 21.7334 0.121582 21.25 0.121582H19.5V3.5688L21.635 2.53039C21.9347 2.38499 22.1239 2.08225 22.1239 1.7513L22.125 1.75136Z" fill="#5F45D3"/>
        <path d="M1.5625 11.8403V12.7083C1.5625 12.9481 1.75828 13.1424 2 13.1424H3.31249C3.31249 12.4761 3.56624 11.8674 3.98295 11.4062H2C1.75828 11.4062 1.5625 11.6005 1.5625 11.8403Z" fill="#5F45D3"/>
        <path d="M12.0624 13.1421H18.625V11.406H11.3921C11.8088 11.8672 12.0624 12.4759 12.0624 13.1421Z" fill="#5F45D3"/>
        <path d="M27.3749 10.9721C27.1331 10.9721 26.9374 10.7779 26.9374 10.5381C26.9374 10.2983 27.1331 10.104 27.3749 10.104H28.2477C28.2192 9.38465 27.7467 8.75637 27.0533 8.52742L26.571 8.36792H21.6875C21.4458 8.36792 21.25 8.17369 21.25 7.93389V4.46167H19.9375C19.6958 4.46167 19.5 4.6559 19.5 4.8957V12.7082C19.5 12.948 19.6958 13.1422 19.9375 13.1422H21.6875C21.6875 11.7056 22.8644 10.5381 24.3125 10.5381C25.7606 10.5381 26.9375 11.7056 26.9375 13.1422H27.8125C28.0542 13.1422 28.25 12.948 28.25 12.7082V10.9721L27.3749 10.9721Z" fill="#5F45D3"/>
        <path d="M9.43749 11.406C8.47063 11.406 7.6875 12.1829 7.6875 13.1421C7.6875 14.1013 8.47063 14.8782 9.43749 14.8782C10.4033 14.8782 11.1875 14.1013 11.1875 13.1421C11.1875 12.1829 10.4044 11.406 9.43749 11.406ZM9.43749 13.5761C9.19578 13.5761 8.99999 13.3819 8.99999 13.1421C8.99999 12.9023 9.19578 12.7081 9.43749 12.7081C9.67921 12.7081 9.87499 12.9023 9.87499 13.1421C9.87499 13.3819 9.67921 13.5761 9.43749 13.5761Z" fill="#5F45D3"/>
        <path d="M5.93749 11.406C4.97063 11.406 4.1875 12.1829 4.1875 13.1421C4.1875 14.1013 4.97063 14.8782 5.93749 14.8782C6.90436 14.8782 7.68749 14.1013 7.68749 13.1421C7.68749 12.1829 6.90436 11.406 5.93749 11.406ZM5.93749 13.5761C5.69578 13.5761 5.49999 13.3819 5.49999 13.1421C5.49999 12.9023 5.69578 12.7081 5.93749 12.7081C6.17921 12.7081 6.37499 12.9023 6.37499 13.1421C6.37499 13.3819 6.17921 13.5761 5.93749 13.5761Z" fill="#5F45D3"/>
        <path d="M24.3125 11.406C23.3456 11.406 22.5625 12.1829 22.5625 13.1421C22.5625 14.1013 23.3456 14.8782 24.3125 14.8782C25.2794 14.8782 26.0625 14.1013 26.0625 13.1421C26.0625 12.1829 25.2794 11.406 24.3125 11.406ZM24.3125 13.5761C24.0708 13.5761 23.875 13.3819 23.875 13.1421C23.875 12.9023 24.0708 12.7081 24.3125 12.7081C24.5542 12.7081 24.75 12.9023 24.75 13.1421C24.75 13.3819 24.5542 13.5761 24.3125 13.5761Z" fill="#5F45D3"/>
    </g>
    <defs>
        <clipPath id="clip0_2291_80713">
            <rect width="28" height="15" fill="white" transform="translate(0.25)"/>
        </clipPath>
    </defs>
</svg>
