<svg width="30" height="16" viewBox="0 0 30 16" fill="none" xmlns="http://www.w3.org/2000/svg">
    <g clip-path="url(#clip0_2291_80658)">
        <path d="M19.49 0.13526H15.563V5.18726H23.8807C22.5421 3.19766 20.6671 1.15093 19.8547 0.29126C19.7609 0.1923 19.6306 0.13526 19.49 0.13526Z" fill="#5F45D3"/>
        <path d="M2.70866 10.2705C2.71387 10.2653 2.71387 10.2549 2.71387 10.2497V5.55705C2.71387 5.45809 2.63054 5.37476 2.53158 5.37476H0.844076C0.745116 5.37476 0.666992 5.45809 0.666992 5.55705V10.2497C0.666992 10.3487 0.745119 10.4268 0.844076 10.4268H2.53158C2.62533 10.4268 2.70345 10.3591 2.70866 10.2705Z" fill="#5F45D3"/>
        <path d="M7.22949 5.18725H14.5212V0.135254H7.79716L7.22949 5.18725Z" fill="#5F45D3"/>
        <path d="M11.1776 13.5361V13.4632C11.1619 12.1612 10.0994 11.1143 8.80256 11.1143C7.49006 11.1143 6.42236 12.1768 6.42236 13.4893V13.5049C6.43278 14.8122 7.4953 15.8642 8.80256 15.8642C10.0942 15.8642 11.1515 14.8278 11.1776 13.5361Z" fill="#5F45D3"/>
        <path d="M21.9429 13.4895V13.5052C21.9533 14.8125 23.0158 15.8645 24.3179 15.8645C25.6199 15.8645 26.672 14.8281 26.6981 13.5364V13.4635C26.6824 12.1614 25.6199 11.1145 24.3179 11.1145C23.0158 11.1145 21.9429 12.177 21.9429 13.4895Z" fill="#5F45D3"/>
        <path d="M28.9375 7.82792H29.8333V7.37999C29.8333 7.11957 29.6562 6.88519 29.4167 6.84352C27.5573 6.49456 24.8127 6.22892 24.7863 6.22892C24.7707 6.22892 24.7551 6.22371 24.7447 6.21851C24.7186 6.22892 24.6874 6.22892 24.6613 6.22892H3.75V12.4426C3.75 12.7395 3.97917 12.9843 4.26563 12.9843H5.4219C5.66148 11.3384 7.08857 10.0728 8.80223 10.0728C10.5159 10.0728 11.9376 11.3384 12.1772 12.9843H20.9429C21.1825 11.3384 22.6044 10.0728 24.3179 10.0728C26.0314 10.0728 27.4585 11.3384 27.6982 12.9843H29.3232C29.6045 12.9843 29.8336 12.7395 29.8336 12.4426V8.86959H28.9378C28.6461 8.86959 28.417 8.64042 28.417 8.34876C28.417 8.0623 28.6458 7.82792 28.9375 7.82792ZM17.5262 8.1248H16.5574C16.271 8.1248 16.0366 7.89042 16.0366 7.60396C16.0366 7.3175 16.271 7.08313 16.5574 7.08313H17.5262C17.8126 7.08313 18.047 7.3175 18.047 7.60396C18.047 7.89042 17.8126 8.1248 17.5262 8.1248Z" fill="#5F45D3"/>
        <path d="M6.17742 5.18725L6.74512 0.135254H4.35189C4.06022 0.135254 3.83105 0.364421 3.83105 0.656087C3.83105 0.942547 4.06022 1.17692 4.35189 1.17692H5.19562L5.4352 1.17432L3.97427 5.18732L6.17742 5.18725Z" fill="#5F45D3"/>
    </g>
    <defs>
        <clipPath id="clip0_2291_80658">
            <rect width="29.3333" height="16" fill="white" transform="translate(0.583496)"/>
        </clipPath>
    </defs>
</svg>
