<svg width="169" height="42" viewBox="0 0 169 42" fill="none" xmlns="http://www.w3.org/2000/svg">
<g clip-path="url(#clip0_2087_86006)">
<path d="M43.9263 22.614C42.7111 23.0093 41.4814 23.3083 40.2745 23.5019C39.0655 23.6849 37.8967 23.7537 36.8074 23.7062C35.7249 23.6456 34.7422 23.4634 33.8954 23.1661C33.0778 22.8528 32.3994 22.4369 31.8824 21.9321C31.4015 21.4122 31.0942 20.8093 30.9712 20.1441C30.8754 19.4802 30.9538 18.7672 31.204 18.0274C31.4686 17.2921 31.9433 16.5399 32.4288 15.7909C32.6033 15.5216 32.72 15.3414 32.9142 15.0418L34.5666 15.1196C35.2868 15.1698 36.377 15.3414 35.6003 16.5399C35.4564 16.8329 35.2952 17.156 35.2328 17.4387C35 18.4168 34.9409 19.2772 35.6578 19.9243C36.0216 20.2275 36.4802 20.4752 37.0203 20.6599C37.3627 20.757 37.7283 20.8334 38.1143 20.8884L39.2533 19.1853L41.4208 20.7655L43.9263 22.614Z" fill="url(#paint0_linear_2087_86006)"/>
<path d="M34.5548 18.1707L39.467 10.5919C39.6666 10.3333 40.4399 8.622 40.3333 7.65955C40.2266 6.69709 39.4804 5.5998 37.2654 5.55859C33.8208 5.67298 30.0001 7.82886 28.6667 8.39643C27.3334 8.964 26.3334 9.81535 26.3334 9.81535C27.3334 8.964 28.0123 8.32926 28.3334 7.2613C28.6545 6.19336 27.6667 5.55873 27.0261 5.55859C25.3548 5.6204 23.9745 6.09602 22.8854 6.98545C21.7962 7.8749 20.9587 8.8074 20.373 9.78296C21.6055 8.95655 23.5394 6.92686 25.1544 6.78696C25.6667 6.69387 26.0437 6.94038 25.6667 7.2613C23.9451 8.72706 22.8151 10.2132 21.6667 11.8018C19 15.4912 18.6667 19.1804 18.6667 19.1804C23.6667 10.6668 26.2668 9.85469 30.9712 7.82886C32.9298 6.98545 34.1042 6.6884 35.7489 6.63716C36.8085 6.68399 37.3118 7.02478 37.2589 7.65955C37.206 8.29434 36.8778 8.97094 36.4207 9.63193L31.9752 16.4907L34.5548 18.1707Z" fill="url(#paint1_linear_2087_86006)"/>
<path d="M59.0002 4.70724C59.0002 4.70724 56.9035 6.27059 55.6668 7.54508C54.4302 8.81957 52.6668 11.2343 52.6668 11.2343C49.4334 -0.206266 25.8631 8.37905 21.3335 14.1625C25.4009 6.10534 34.4646 2.77762 40.1892 2.20517C47.5205 1.46881 52.3335 2.20516 57.3335 5.27482C57.4184 5.38753 58.924 4.58655 59.0002 4.70724Z" fill="#3A29A5"/>
<path style="mix-blend-mode:multiply" d="M59 4.70714C59 4.70714 56.8534 6.34679 55.6667 7.54503C54.34 8.88471 52.6667 11.2342 52.6667 11.2342C50.3334 4.42343 42.6667 5.55857 40 5.84241C36.2163 6.24516 30.9048 7.55749 26.6667 10.0991C22.743 12.4522 20.3334 16.0586 18.6667 19.1801C21.6667 8.39647 36.0001 3.62329 42.3369 3.6233C45.3859 3.63041 50.0664 4.59945 52.6902 6.50332C55.0466 8.21518 57 5.55868 57.3334 5.55857C57.3334 5.55857 58.3334 4.70719 59 4.70714Z" fill="url(#paint2_linear_2087_86006)"/>
<path d="M44.2679 10.3887C44.2679 9.81305 43.6686 9.52525 42.9205 9.7411C42.5567 9.84195 42.2334 10.0308 41.9882 10.2856C41.743 10.5404 41.5862 10.8507 41.536 11.1801C41.5153 11.7629 42.1105 12.0651 42.8668 11.8493C43.2336 11.7467 43.5588 11.5544 43.8035 11.2955C44.0483 11.0365 44.2023 10.7217 44.2472 10.3887H44.2679ZM48.4009 17.6702C48.4009 17.2277 47.938 16.9902 47.3883 17.1341C47.121 17.2013 46.8833 17.3372 46.7063 17.524C46.5293 17.7108 46.4213 17.9398 46.3964 18.181C46.3964 18.6235 46.8469 18.8682 47.4007 18.7278C47.6709 18.6611 47.9111 18.5239 48.0892 18.3349C48.2672 18.1458 48.3745 17.9139 48.3968 17.6702H48.4009ZM46.0699 23.1457C46.072 23.0654 46.0508 22.9859 46.0084 22.9146C45.9659 22.8433 45.9035 22.7824 45.8269 22.7376C45.7504 22.6928 45.6621 22.6655 45.5702 22.6583C45.4783 22.651 45.3858 22.6639 45.3011 22.696C45.0926 22.7475 44.9071 22.8534 44.7697 22.9994C44.6323 23.1454 44.5495 23.3245 44.5324 23.5126C44.5295 23.5926 44.5497 23.6719 44.5911 23.7434C44.6326 23.8148 44.6939 23.876 44.7696 23.9215C44.8452 23.967 44.9328 23.9952 45.0242 24.0036C45.1156 24.0119 45.208 24.0002 45.2929 23.9695C45.5032 23.9177 45.6901 23.8109 45.8283 23.6635C45.9666 23.5162 46.0495 23.3354 46.0658 23.1457H46.0699ZM41.007 27.9736C41.0123 27.9197 41.0019 27.8655 40.9767 27.816C40.9515 27.7666 40.9123 27.7235 40.8628 27.6908C40.8132 27.6581 40.755 27.6369 40.6935 27.6291C40.632 27.6213 40.5692 27.6272 40.511 27.6462C40.3696 27.683 40.2441 27.7558 40.1505 27.8551C40.057 27.9545 39.9997 28.0759 39.9861 28.2039C39.9803 28.2576 39.9902 28.3118 40.0149 28.3613C40.0396 28.4109 40.0783 28.4542 40.1274 28.4872C40.1764 28.5202 40.2343 28.5419 40.2956 28.5503C40.3569 28.5586 40.4196 28.5533 40.4779 28.5348C40.621 28.4989 40.7482 28.426 40.8427 28.3258C40.9371 28.2256 40.9944 28.1028 41.007 27.9736ZM34.6174 30.7366C34.6225 30.7102 34.6197 30.6832 34.6093 30.658C34.5989 30.6329 34.5811 30.6106 34.5578 30.5932C34.5345 30.5758 34.5064 30.5639 34.4763 30.5588C34.4462 30.5537 34.415 30.5554 34.3859 30.5639C34.3149 30.5838 34.2521 30.6213 34.2051 30.6717C34.1581 30.7222 34.1291 30.7835 34.1214 30.8481C34.1163 30.8744 34.119 30.9015 34.1295 30.9266C34.1399 30.9517 34.1576 30.9741 34.181 30.9915C34.2043 31.0089 34.2323 31.0207 34.2625 31.0258C34.2926 31.031 34.3237 31.0292 34.3529 31.0208C34.4221 31.0016 34.4838 30.9658 34.5306 30.9174C34.5774 30.869 34.6075 30.81 34.6174 30.7474V30.7366Z" fill="#EE3760"/>
<path d="M41.7676 38.4534C25.9878 43.0799 15.5851 37.7878 14.8205 29.9451C14.184 23.4227 19.7801 16.5478 26.2606 15.4505C17.0978 19.8503 13.2582 32.4382 26.1118 34.5176C36.56 36.2193 51.1122 27.1138 51.9884 16.9543C51.9884 16.6953 52.0256 16.4362 52.0256 16.1772C52.2323 11.083 60.8868 4.80167 61.734 4.12532C60.8496 5.61472 61.1141 7.64735 61.548 10.8708C63.6889 20.059 58.2334 33.629 41.7676 38.4534Z" fill="url(#paint3_linear_2087_86006)"/>
<path style="mix-blend-mode:multiply" d="M61.734 4.13965C55.5346 11.9068 57.0968 15.2058 55.5346 20.908C53.9723 26.6101 47.748 33.4779 38.3827 36.2948C29.4637 38.9714 20.6108 37.6763 17.602 32.6972C14.5932 27.7182 16.6266 19.2279 26.2606 15.4288C17.0978 19.8287 13.2582 32.4166 26.1118 34.496C36.56 36.1977 51.1123 27.0922 51.9885 16.9326C51.9885 16.6736 52.0256 16.4146 52.0256 16.1556C52.2323 11.0974 60.8785 4.81599 61.734 4.13965Z" fill="url(#paint4_linear_2087_86006)"/>
<path d="M36.6667 0.666666L6.66675 2.48272L30.1334 3.33333C30.1334 3.33333 31.4618 2.58579 32.3334 2C33.205 1.41421 36.6667 0.666666 36.6667 0.666666Z" fill="url(#paint5_linear_2087_86006)"/>
<path d="M19.3333 10L1.33325 11.8161L17.3333 12.6667C17.3333 12.6667 17.5845 12 17.9999 11.3333C18.4154 10.6667 19.3333 10 19.3333 10Z" fill="url(#paint6_linear_2087_86006)"/>
<path d="M15.3333 18.6667L-0.000102043 20.4827L13.6666 21.3333C13.6666 21.3333 13.9999 20.6667 14.3333 20C14.6666 19.3333 15.3333 18.6667 15.3333 18.6667Z" fill="url(#paint7_linear_2087_86006)"/>
</g>
<path d="M74.792 19.204H82.592L81.896 22.756H74.096L74.792 19.204ZM73.808 25.828H82.616L81.848 29.5H68.384L71.744 12.7H84.896L84.152 16.372H75.68L73.808 25.828ZM90.4627 29.716C89.4547 29.716 88.5907 29.524 87.8707 29.14C87.1507 28.74 86.6387 28.164 86.3347 27.412C86.0307 26.644 85.9827 25.732 86.1907 24.676L88.3987 13.588H92.9587L90.7507 24.652C90.6707 25.148 90.7267 25.532 90.9187 25.804C91.1107 26.06 91.4387 26.188 91.9027 26.188C92.1427 26.188 92.3747 26.156 92.5987 26.092C92.8227 26.028 93.0467 25.932 93.2707 25.804L93.8467 28.948C93.3667 29.22 92.8307 29.412 92.2387 29.524C91.6627 29.652 91.0707 29.716 90.4627 29.716ZM85.2307 19.876L85.9267 16.492H95.3347L94.6627 19.876H85.2307ZM101.494 29.716C100.566 29.716 99.6775 29.484 98.8295 29.02C97.9815 28.556 97.2935 27.884 96.7655 27.004C96.2535 26.124 95.9975 25.052 95.9975 23.788C95.9975 22.7 96.1815 21.7 96.5495 20.788C96.9175 19.876 97.4215 19.084 98.0615 18.412C98.7175 17.74 99.4695 17.22 100.318 16.852C101.182 16.468 102.094 16.276 103.054 16.276C104.11 16.276 105.014 16.484 105.766 16.9C106.534 17.3 107.094 17.956 107.446 18.868C107.798 19.764 107.878 20.98 107.686 22.516C107.542 23.972 107.198 25.244 106.654 26.332C106.11 27.42 105.406 28.26 104.542 28.852C103.678 29.428 102.662 29.716 101.494 29.716ZM103.078 26.044C103.686 26.044 104.222 25.892 104.686 25.588C105.15 25.284 105.51 24.86 105.766 24.316C106.038 23.772 106.174 23.14 106.174 22.42C106.174 21.668 105.958 21.068 105.526 20.62C105.094 20.156 104.486 19.924 103.702 19.924C103.11 19.924 102.574 20.084 102.094 20.404C101.63 20.708 101.262 21.132 100.99 21.676C100.734 22.22 100.606 22.852 100.606 23.572C100.606 24.324 100.822 24.924 101.254 25.372C101.686 25.82 102.294 26.044 103.078 26.044ZM104.998 29.5L105.454 27.316L106.318 23.02L106.894 18.724L107.35 16.492H111.91L109.318 29.5H104.998ZM119.237 20.068H126.989L126.245 23.74H118.517L119.237 20.068ZM117.701 29.5H112.949L116.309 12.7H129.461L128.717 16.372H120.317L117.701 29.5ZM128.611 29.5L132.163 11.692H136.723L133.171 29.5H128.611ZM143.959 29.716C142.567 29.716 141.351 29.476 140.311 28.996C139.287 28.5 138.487 27.812 137.911 26.932C137.335 26.036 137.047 24.988 137.047 23.788C137.047 22.348 137.375 21.068 138.031 19.948C138.687 18.812 139.607 17.916 140.791 17.26C141.975 16.604 143.351 16.276 144.919 16.276C146.247 16.276 147.383 16.516 148.327 16.996C149.287 17.476 150.023 18.148 150.535 19.012C151.063 19.86 151.327 20.852 151.327 21.988C151.327 22.372 151.303 22.74 151.255 23.092C151.207 23.444 151.143 23.788 151.063 24.124H140.623L141.055 21.724H148.951L147.055 22.42C147.183 21.796 147.159 21.276 146.983 20.86C146.823 20.428 146.543 20.1 146.143 19.876C145.759 19.636 145.279 19.516 144.703 19.516C143.967 19.516 143.359 19.7 142.879 20.068C142.415 20.436 142.063 20.94 141.823 21.58C141.599 22.204 141.487 22.884 141.487 23.62C141.487 24.516 141.735 25.18 142.231 25.612C142.727 26.028 143.471 26.236 144.463 26.236C145.039 26.236 145.599 26.148 146.143 25.972C146.703 25.78 147.191 25.516 147.607 25.18L149.503 28.036C148.687 28.644 147.799 29.076 146.839 29.332C145.895 29.588 144.935 29.716 143.959 29.716ZM150.44 29.5L158.144 21.604L157.52 23.908L153.512 16.492H158.288L160.76 21.244L158.672 21.22L163.112 16.492H168.128L160.76 24.148L161.144 21.772L165.368 29.5H160.52L157.976 24.604H160.136L155.6 29.5H150.44Z" fill="#282058"/>
<defs>
<linearGradient id="paint0_linear_2087_86006" x1="23.9999" y1="6.33333" x2="42.8041" y2="10.1455" gradientUnits="userSpaceOnUse">
<stop stop-color="#3A29A5"/>
<stop offset="1" stop-color="#1C125B"/>
</linearGradient>
<linearGradient id="paint1_linear_2087_86006" x1="23.9999" y1="6.33333" x2="42.8041" y2="10.1455" gradientUnits="userSpaceOnUse">
<stop stop-color="#3A29A5"/>
<stop offset="1" stop-color="#1C125B"/>
</linearGradient>
<linearGradient id="paint2_linear_2087_86006" x1="39.5033" y1="12.4666" x2="46.0577" y2="-5.81169" gradientUnits="userSpaceOnUse">
<stop stop-color="#7B728C"/>
<stop offset="1" stop-color="#E1D9FF" stop-opacity="0"/>
</linearGradient>
<linearGradient id="paint3_linear_2087_86006" x1="32.7452" y1="39.2844" x2="39.3074" y2="13.6855" gradientUnits="userSpaceOnUse">
<stop stop-color="#3A29A5"/>
<stop offset="1" stop-color="#5F45D3"/>
</linearGradient>
<linearGradient id="paint4_linear_2087_86006" x1="43.1687" y1="52.4587" x2="39.5242" y2="10.5007" gradientUnits="userSpaceOnUse">
<stop stop-color="#7B728C"/>
<stop offset="1" stop-color="#E1D9FF" stop-opacity="0"/>
</linearGradient>
<linearGradient id="paint5_linear_2087_86006" x1="6.66675" y1="2.33331" x2="34.7247" y2="2.33332" gradientUnits="userSpaceOnUse">
<stop stop-color="#D1CDEA"/>
<stop offset="1" stop-color="#422FAF"/>
</linearGradient>
<linearGradient id="paint6_linear_2087_86006" x1="1.33325" y1="11.6666" x2="19.826" y2="11.6667" gradientUnits="userSpaceOnUse">
<stop stop-color="#D1CDEA"/>
<stop offset="1" stop-color="#422FAF"/>
</linearGradient>
<linearGradient id="paint7_linear_2087_86006" x1="-8.2179e-05" y1="20.3333" x2="15.9419" y2="20.3333" gradientUnits="userSpaceOnUse">
<stop stop-color="#D1CDEA"/>
<stop offset="1" stop-color="#422FAF"/>
</linearGradient>
<clipPath id="clip0_2087_86006">
<rect width="62" height="40.6667" fill="white" transform="translate(0 0.666666)"/>
</clipPath>
</defs>
</svg>
